<svg width="48" height="48" viewBox="0 0 48 48" fill="none" xmlns="http://www.w3.org/2000/svg">
<rect width="48" height="48" rx="8" fill="#FFC60A"/>
<path d="M18 19H30M18 23H24M11 25.0133C11 27.1467 12.4973 29.0053 14.6093 29.316C16.1147 29.5373 17.636 29.7067 19.1733 29.8213C19.64 29.856 20.0667 30.1013 20.3267 30.4893L24 36L27.6733 30.4893C27.8022 30.2977 27.973 30.1379 28.1729 30.0222C28.3727 29.9064 28.5963 29.8377 28.8267 29.8213C30.3535 29.7073 31.8758 29.5388 33.3907 29.316C35.5027 29.0053 37 27.148 37 25.012V16.988C37 14.852 35.5027 12.9947 33.3907 12.684C30.2813 12.2276 27.1427 11.999 24 12C20.8107 12 17.6747 12.2333 14.6093 12.684C12.4973 12.9947 11 14.8533 11 16.988V25.012V25.0133Z" stroke="white" stroke-width="1.5" stroke-linecap="round" stroke-linejoin="round"/>
</svg>
