<svg width="48" height="48" viewBox="0 0 48 48" fill="none" xmlns="http://www.w3.org/2000/svg">
<rect width="48" height="48" rx="8" fill="white"/>
<path d="M11 25.0133C11 27.1467 12.4973 29.0053 14.6093 29.316C16.0333 29.5253 17.4733 29.688 18.9267 29.8013C19.548 29.8507 20.1173 30.176 20.464 30.696L24 36L27.536 30.696C27.8827 30.176 28.452 29.8507 29.0733 29.8027C30.5267 29.688 31.9667 29.5253 33.3907 29.316C35.5027 29.0053 37 27.148 37 25.012V16.988C37 14.852 35.5027 12.9947 33.3907 12.684C30.2813 12.2276 27.1427 11.999 24 12C20.8107 12 17.6747 12.2333 14.6093 12.684C12.4973 12.9947 11 14.8533 11 16.988V25.012V25.0133Z" stroke="#446622" stroke-width="1.5" stroke-linecap="round" stroke-linejoin="round"/>
</svg>
