<svg width="1039" height="687" viewBox="0 0 1039 687" fill="none" xmlns="http://www.w3.org/2000/svg">
<g opacity="0.7">
<path d="M776.174 538.987C775.433 539.248 775.038 540.336 774.308 540.624C767.765 543.202 768.373 542.685 771.972 547.696C774.665 551.445 776.429 555.34 777.18 560.201C777.756 563.928 778.992 567.465 778.907 571.086C778.82 574.799 777.434 578.271 776.665 581.872C775.901 585.449 776.454 589.451 775.031 592.918C773.657 596.265 769.557 598.291 767.58 601.537C765.706 604.613 764.65 608.167 762.246 611.152C759.733 614.273 757.679 617.727 754.865 620.561C752.049 623.398 748.012 624.871 744.933 627.453C741.873 630.019 740.297 634.41 737.016 636.755C733.765 639.078 730.13 640.971 726.698 643.107C723.303 645.22 720.233 648.005 716.695 649.965C712.952 652.038 708.142 652.045 704.242 653.687C700.302 655.346 696.202 655.78 692.03 656.708C687.931 657.62 684.094 659.737 679.702 659.664C678.807 659.649 677.937 661.517 677.603 662.527C675.464 668.989 677.621 671.88 684.559 674.172C688.303 675.409 691.461 678.382 695.217 679.143C699.06 679.921 702.978 680.746 706.831 681.018C710.713 681.293 714.674 680.412 718.562 680.166C722.412 679.922 726.01 678.153 729.863 677.39C733.615 676.647 737.585 676.775 741.336 675.532C744.94 674.338 748.757 673.381 752.357 671.719C755.955 670.059 758.467 666.54 761.843 664.675C765.301 662.763 769.605 662.365 772.819 660.233C776.1 658.057 779.813 656.395 782.826 653.983C785.885 651.535 787.44 647.468 790.208 644.772C792.998 642.055 797.107 640.503 799.587 637.529C802.064 634.56 803.062 630.482 805.217 627.251C807.346 624.057 810.248 621.268 812.05 617.813C814.115 613.853 814.409 609.456 815.509 605.528C816.688 601.313 816.581 597.32 816.651 593.156C816.722 588.919 819.096 584.412 818.017 580.244C816.985 576.254 814.724 572.314 812.639 568.403C810.958 565.248 807.126 564.208 804.337 562.176C801.584 560.171 799.465 557.173 796.485 555.366C791.607 552.407 788.859 549.186 787.821 543.423C786.493 536.053 784.228 535.707 776.174 538.987L776.174 538.987Z" fill="#99BB44"/>
<path d="M1026.43 78.1373C1025.67 81.1525 1026.36 84.4749 1025.6 87.49C1025.39 87.9391 1025.59 88.5697 1025.43 89.0342C1024.46 91.8157 1020.85 95.3624 1018.98 99.998C1017.46 103.785 1015.89 107.81 1014.11 111.449C1011.89 115.984 1010.45 120.379 1008.36 122.51C1006.02 124.895 1004.22 127.961 1001.65 130.16C999.086 132.353 995.044 132.746 992.289 134.678C989.507 136.628 987.794 140.228 984.848 141.836C981.85 143.472 977.986 143.353 974.852 144.553C971.657 145.777 968.371 146.123 965.071 146.808C961.737 147.501 958.618 148.909 955.216 148.963C951.513 149.022 947.888 148.835 944.297 148.221C940.698 147.606 936.864 147.774 933.317 146.852C929.119 145.761 924.928 144.449 920.823 143.089C917.83 142.098 914.697 141.203 911.926 139.805C909.146 138.401 907.507 135.13 904.922 133.379C902.364 131.645 899.943 129.867 897.547 127.854C895.041 125.749 891.844 124.234 889.807 121.514C887.856 118.908 886.663 115.73 885.12 112.729C883.622 109.816 882.073 106.877 880.939 103.746C879.811 100.63 878.323 97.5734 877.537 94.3917C876.729 91.1212 876.682 87.7251 876.215 84.5468C875.786 81.6321 876.59 78.1557 876.787 74.292C876.953 71.0405 875.121 67.3319 875.654 63.7898C876.164 60.4075 877.888 57.1122 878.672 53.7757C879.49 50.2917 879.439 46.5725 880.491 43.4768C881.733 39.8189 885.295 37.4817 886.758 34.8921C888.629 31.581 889.712 27.9412 892.162 25.2581C894.716 22.4603 898.082 20.7229 901.141 18.6706C904.27 16.5707 907.323 14.6026 910.847 13.3507C914.37 12.0988 918.029 12.0384 921.81 11.7028C925.492 11.376 929.313 9.49972 933.113 10.1058C936.45 10.6381 939.082 13.2974 942.051 14.518C945.089 15.7666 947.606 17.3552 950.206 19.376C952.7 21.3146 954.637 23.5161 956.68 26.2128C958.175 28.1863 960.241 29.8464 961.619 32.016C962.329 31.5322 962.812 30.169 963.563 29.7043C966.49 27.8954 969.752 26.8631 972.719 25.8704C975.916 24.8005 979.231 24.5673 982.454 24.4027C985.711 24.2363 988.978 24.3812 992.238 25.0935C995.338 25.7706 998.243 27.2483 1001.33 28.679C1004.7 30.2427 1007.61 32.0498 1010.3 34.0871C1013.2 36.2717 1016.71 37.8111 1018.84 40.5132C1021.01 43.252 1022.63 46.5576 1024.05 49.799C1025.41 52.9024 1025.89 56.4553 1026.59 59.9933C1027.24 63.2719 1027.95 66.7218 1028.05 70.3525C1028.11 72.9733 1026.61 75.5043 1026.43 78.1373L1026.43 78.1373ZM982.41 104.084C982.71 103.955 986.75 101.762 991.413 98.6162C993.781 97.0192 995.87 94.7188 998.319 91.9859C1000.32 89.7518 1004.01 88.3099 1005.64 85.1699C1007.03 82.5018 1008.15 79.2166 1009.01 75.8063C1009.61 72.4963 1008.75 69.1752 1008.36 66.1718C1007.95 62.9619 1006.1 60.4736 1004.54 57.6834C1003.05 55.0031 1002.74 51.2244 1000.18 48.9962C996.836 46.0823 992.276 45.9819 988.399 45.1924C984.553 44.4091 980.463 43.0977 976.2 44.8003C972.449 46.2984 968.58 48.831 966.408 52.0682C964.247 55.2893 963.809 59.7764 963.565 63.667C963.323 67.5055 964.29 71.4363 966.256 74.9116C967.781 77.6085 970.278 79.7583 971.846 82.4298C973.414 85.1021 974.545 88.0168 976.126 90.681C977.708 93.3453 979.637 95.8177 981.203 98.4912C982.566 100.817 981.061 101.691 982.41 104.084L982.41 104.084ZM909.463 86.1051C912.859 83.9613 915.507 80.6894 918.449 78.8378C921.637 76.8318 924.416 74.52 927.581 72.5159C930.527 70.6494 934.771 70.4994 938.141 68.3374C941.94 65.9003 944.636 61.7731 946.224 57.4886C947.578 53.8332 946.872 49.771 946.179 46.1937C945.456 42.466 943.011 39.727 940.506 36.9612C937.999 34.1928 935.831 30.3819 931.99 29.4747C928.128 28.5626 924.215 30.6202 920.501 31.3936C916.743 32.1763 912.558 32.1826 909.44 34.4964C906.458 36.7089 903.16 39.4713 901.203 42.9083C899.418 46.0414 899.152 49.3678 898.48 52.0245C897.696 55.1241 897.775 58.1196 898.181 61.3038C898.532 64.059 900.309 66.6998 901.308 70.0696C902.001 72.407 902.952 75.2102 904.699 77.9244C906.388 80.5483 907.859 84.1307 909.463 86.1051L909.463 86.1051ZM921.205 96.1605C925.938 100.183 928.516 102.459 932.179 103.614C934.985 104.499 937.904 104.801 940.767 105.51C943.628 106.218 945.999 108.942 948.877 109.569C952.189 110.291 955.746 110.488 959.138 110.781C961.127 110.952 963.931 106.486 965.805 106.433C963.996 103.33 961.339 100.815 959.548 97.7432C957.741 94.6425 957.861 90.4848 956.07 87.4122C954.263 84.3135 951.293 82.8161 949.5 79.7415C946.427 81.6542 943.268 81.9613 940.155 83.8985C937.095 85.8027 933.672 87.2048 930.543 89.1515C927.496 91.0482 924.346 94.2061 921.205 96.1605Z" fill="#E6E5E3"/>
<path fill-rule="evenodd" clip-rule="evenodd" d="M186.984 58.664C184.596 56.9561 184.7 56.1185 184.94 54.1723C185.048 53.2914 185.185 52.1834 185.132 50.6647C185.047 48.2631 185.254 45.5349 186.453 42.5113C187.363 40.2178 188.944 38.0171 191.036 35.5531C192.662 33.6384 194.629 31.7615 197.173 29.8305C197.65 29.4683 198.131 29.0893 198.623 28.7018C200.242 27.4265 201.977 26.0587 204.085 24.8929C206.003 23.8316 207.939 23.0076 210.184 22.0527C210.624 21.8653 211.077 21.6729 211.543 21.4727C213.599 22.6655 213.337 23.4219 212.809 24.9473C212.515 25.797 212.138 26.8854 212.034 28.4207C211.933 29.8984 211.592 31.5179 211.231 33.2281L211.231 33.2284L211.231 33.2287C211.066 34.0096 210.897 34.8095 210.746 35.6234C210.599 36.4097 210.498 37.228 210.395 38.0578C210.195 39.6643 209.99 41.3141 209.444 42.8588C208.881 44.4529 207.857 45.8734 206.845 47.2773L206.845 47.2775C206.399 47.8966 205.954 48.5124 205.553 49.1384C204.23 51.2043 202.771 53.1289 200.818 54.6509C198.954 56.104 196.692 56.827 194.148 57.5266L193.827 57.6151C191.749 58.1889 189.598 58.7827 186.984 58.664ZM183.774 66.7148C182.695 68.0858 182.249 68.2475 180.672 67.4648C178.859 66.5644 178.874 65.9439 178.9 64.8641C178.921 64.0029 178.949 62.8495 178.061 61.0288C177.183 59.2269 175.932 57.2291 174.264 54.9796C174.103 54.7625 173.941 54.5419 173.777 54.3185L173.776 54.3177L173.776 54.3176C172.629 52.757 171.377 51.0551 169.73 49.403C168.162 47.8299 166.302 46.3163 164.247 44.6964C163.726 44.2851 163.223 43.8681 162.717 43.4488C161.502 42.4418 160.272 41.4217 158.731 40.4366C160.718 35.1083 160.806 35.0089 165.066 31.1643C166.892 32.4228 168.11 33.7934 169.386 35.2292L169.386 35.2292C169.82 35.7175 170.261 36.2134 170.734 36.7149C171.458 37.4816 172.238 38.1893 173.007 38.8871L173.007 38.8872C174.388 40.1401 175.733 41.3609 176.655 42.8336C177.683 44.4754 178.253 46.284 178.801 48.0222L178.801 48.0222C179.094 48.9515 179.38 49.8607 179.727 50.7135C180.211 51.9043 180.796 53.0223 181.356 54.0926C182.154 55.6186 182.902 57.0475 183.234 58.4513C183.615 60.0615 184.087 61.1462 184.455 61.9945C185.21 63.7318 185.534 64.4778 183.774 66.7148ZM206.508 61.6762C207.167 61.7072 207.835 61.7387 208.509 61.7387C211.35 61.7387 213.973 61.9279 216.471 62.7157C219.09 63.5413 221.454 64.7332 223.626 66.3261L223.72 66.3952C225.826 67.9396 228.01 69.5415 229.62 71.7199C230.673 73.1453 231.248 74.8691 231.838 76.6397C232.109 77.4539 232.384 78.2779 232.71 79.0874C232.998 79.8025 233.328 80.5133 233.661 81.232C234.436 82.9025 235.231 84.6156 235.567 86.5247C235.858 88.1798 235.758 89.9027 235.656 91.675C235.602 92.5998 235.548 93.538 235.548 94.4871C235.548 95.5043 235.729 96.5659 235.915 97.6605C236.154 99.0662 236.403 100.526 236.29 102.017C236.189 103.354 235.874 104.709 235.552 106.09C235.298 107.184 235.039 108.295 234.88 109.427C234.839 109.724 234.797 110.022 234.756 110.321C234.458 112.467 234.154 114.654 233.704 116.837C233.382 118.408 232.899 119.946 232.416 121.487C232.148 122.341 231.88 123.195 231.639 124.056C231.447 124.74 231.266 125.426 231.085 126.109C230.625 127.855 230.167 129.588 229.543 131.257C229.176 132.239 228.9 133.257 228.627 134.269C228.233 135.725 227.844 137.165 227.191 138.457C226.297 140.227 225.111 141.826 223.969 143.366C223.618 143.839 223.271 144.307 222.938 144.773C221.414 146.903 219.656 148.777 217.829 150.389C215.904 152.088 213.594 153.06 211.309 154.022L211.22 154.059C208.048 155.394 205.28 155.838 202.626 155.829C199.332 155.817 196.609 155.077 194.142 153.808C192.606 153.019 190.872 152.863 189.158 152.708C188.432 152.643 187.71 152.578 187.008 152.466C184.609 152.081 182.363 152.07 179.964 152.455C179.308 152.56 178.638 152.63 177.966 152.7C176.216 152.882 174.448 153.066 172.868 153.878C170.401 155.147 167.64 155.651 164.346 155.662C164.004 155.663 163.656 155.669 163.302 155.674C160.916 155.71 158.285 155.749 155.522 154.586C153.127 153.578 150.733 152.419 148.727 150.837C147.283 149.698 146.163 148.179 145.032 146.645C144.618 146.084 144.203 145.522 143.771 144.975C142.597 143.492 141.733 141.798 140.839 140.045C140.567 139.513 140.293 138.976 140.007 138.437C139.714 137.887 139.41 137.34 139.103 136.788C138.202 135.169 137.285 133.52 136.61 131.692C135.76 129.387 135.027 126.984 134.384 124.467C134.128 123.462 133.765 122.466 133.399 121.458C132.893 120.069 132.381 118.66 132.129 117.184C131.81 115.318 131.623 113.388 131.434 111.441C131.376 110.84 131.318 110.238 131.255 109.636C131.096 108.096 131.069 106.526 131.042 104.944C131.025 103.985 131.009 103.021 130.962 102.057C130.928 101.337 130.886 100.614 130.844 99.8879C130.741 98.1007 130.637 96.2982 130.637 94.4871C130.637 92.5576 131.006 90.7614 131.357 89.0585C131.538 88.1752 131.715 87.3169 131.832 86.4782C131.99 85.344 132.037 84.223 132.082 83.1407C132.154 81.421 132.222 79.7989 132.726 78.3764C133.721 75.5692 135.171 73.1351 136.63 71.128C138.351 68.7595 140.446 66.8094 142.583 65.3775C144.284 64.2375 146.281 63.8375 148.218 63.4496C148.981 63.2966 149.736 63.1455 150.459 62.9517C151.384 62.7038 152.291 62.3887 153.186 62.0781C154.988 61.4522 156.737 60.845 158.464 60.845C161.016 60.845 163.157 61.2665 164.927 61.6151C165.016 61.6326 165.105 61.65 165.192 61.6672C167.905 62.1994 169.911 63.0838 171.482 64.107C172.646 64.8646 173.602 65.7454 174.563 66.6305C175.216 67.2314 175.87 67.8343 176.593 68.4021C178.639 70.0081 181.022 71.5166 183.487 71.5166C185.951 71.5166 188.525 70.2411 190.571 68.6351C191.798 67.6713 193.284 66.8591 194.869 65.9921C195.297 65.7582 195.732 65.5204 196.171 65.2745C196.81 64.9165 197.429 64.478 198.059 64.032C199.229 63.2025 200.437 62.3471 201.879 61.9357C203.316 61.5259 204.882 61.5996 206.508 61.6762Z" fill="#99BB44"/>
<path fill-rule="evenodd" clip-rule="evenodd" d="M175.067 420.171C176.167 418.394 177.231 416.674 178.548 416.569C182.693 416.24 186.65 418.434 188.347 420.14C189.837 421.638 190.123 424.167 185.694 428.789C185.117 429.392 184.543 430.031 183.961 430.68C182.443 432.372 180.864 434.132 178.992 435.492C177.415 436.639 175.587 437.533 173.764 438.426C172.705 438.945 171.648 439.462 170.642 440.028C168.987 440.959 167.192 441.633 165.42 442.297C164.235 442.742 163.06 443.183 161.945 443.694C160.591 444.315 159.553 444.923 158.568 445.5C157.377 446.198 156.263 446.851 154.762 447.425C154.737 446.809 154.721 446.272 154.708 445.797C154.61 442.353 154.604 442.152 151.335 438.677C150.975 438.294 150.644 437.846 150.295 437.375C149.042 435.682 147.567 433.687 143.721 433.324C143.98 432.575 144.218 431.869 144.448 431.183C145.261 428.768 145.984 426.618 147.248 423.813C147.925 422.309 148.323 420.628 148.722 418.943C149.236 416.77 149.752 414.589 150.872 412.772C152.081 410.812 154.118 409.462 156.111 408.142C157.51 407.215 158.888 406.302 159.941 405.203C163.877 401.095 165.864 401.742 166.93 405.571C167.357 407.106 167.119 409.072 166.867 411.157C166.692 412.602 166.511 414.104 166.539 415.558C166.578 417.59 166.886 419.598 167.159 421.38C167.399 422.939 167.612 424.326 167.594 425.403C167.545 428.435 170.049 426.115 172.977 423.107C173.729 422.334 174.404 421.242 175.067 420.171ZM144.591 440C147.359 442.535 148.626 444.881 149.072 448.216C149.481 451.277 149.537 454.373 148.283 457.967C147.936 458.963 147.675 460.049 147.405 461.174C146.883 463.346 146.326 465.664 145.044 467.765C144.765 468.223 144.483 468.692 144.195 469.168C142.776 471.525 141.242 474.071 139.381 476.463C138.312 477.836 136.87 478.987 135.393 480.166C134.098 481.2 132.776 482.255 131.656 483.499C130.349 484.952 128.882 486.311 127.386 487.697C126.345 488.662 125.289 489.64 124.264 490.671C123.866 491.071 123.509 491.515 123.174 491.985C122.358 491.423 121.563 490.762 120.521 489.375C119.177 487.588 118.814 486.565 118.394 485.38L118.393 485.378C117.918 484.042 117.381 482.529 115.626 480.195C114.874 479.193 113.431 478.977 112.408 479.714C111.383 480.45 111.163 481.859 111.917 482.86C113.26 484.647 113.623 485.67 114.044 486.855C114.518 488.191 115.056 489.705 116.811 492.04C118.41 494.167 119.705 495.128 120.849 495.887C120.129 497.133 119.347 498.335 118.314 499.301C117.032 500.499 115.52 501.491 113.996 502.492C112.585 503.418 111.163 504.351 109.904 505.461C108.578 506.63 107.067 507.611 105.548 508.596C104.143 509.507 102.731 510.423 101.455 511.496C100.171 512.575 99.1186 513.931 98.064 515.29C97.5599 515.94 97.0554 516.59 96.5251 517.21C95.7844 516.678 95.0421 516.018 94.0941 514.757C92.7512 512.971 92.388 511.948 91.9677 510.764L91.9669 510.761C91.4924 509.426 90.9544 507.911 89.1996 505.576C88.4463 504.574 87.0054 504.359 85.9808 505.094C84.9561 505.831 84.7362 507.239 85.489 508.241C86.8311 510.026 87.1947 511.049 87.6152 512.232L87.6168 512.237C88.0907 513.572 88.6287 515.087 90.384 517.422C91.3673 518.73 92.2353 519.596 93.0245 520.246C92.0185 520.855 90.934 521.369 89.8502 521.883C88.2704 522.632 86.6922 523.381 85.361 524.419C83.9006 525.558 82.3711 526.598 80.8479 527.634C79.5191 528.538 78.1949 529.439 76.9254 530.399C75.6611 531.356 74.4311 532.339 73.2089 533.317C71.7396 534.492 70.2815 535.659 68.7886 536.757C67.371 537.8 66.2691 539.234 65.1791 540.653C64.0906 542.069 63.0138 543.471 61.6462 544.452C60.1695 545.511 58.2777 545.968 56.4165 546.418C54.6388 546.848 52.889 547.271 51.5555 548.205C50.059 549.254 48.8688 550.659 47.7066 552.031C46.576 553.365 45.4718 554.669 44.1378 555.583C42.4751 556.722 40.8077 557.737 39.2058 558.713C37.8706 559.526 36.5809 560.311 35.3775 561.118C33.6275 562.29 31.716 563.009 29.9368 563.679C28.4221 564.249 27.0034 564.783 25.8621 565.529C23.4828 567.086 21.1393 565.516 22.5723 563.094C23.2514 561.946 23.8418 560.624 24.4717 559.213C25.2287 557.518 26.0429 555.695 27.1367 553.892C27.9512 552.55 28.926 551.219 29.9381 549.837C30.9597 548.443 32.0193 546.996 32.99 545.434C33.7946 544.139 34.5333 542.756 35.2889 541.341C36.144 539.741 37.0207 538.099 38.0393 536.498C38.9183 535.117 40.3668 534.052 41.8386 532.969C43.3362 531.867 44.858 530.748 45.8289 529.26C46.694 527.933 47.4759 526.536 48.266 525.124C49.1427 523.557 50.0295 521.972 51.0511 520.446C52.1814 518.759 53.3603 517.084 54.5493 515.395C55.3327 514.282 56.1205 513.163 56.9017 512.03C57.0595 511.801 57.2055 511.564 57.3468 511.323C58.078 512.156 58.6765 512.741 59.26 513.307L59.2611 513.308C60.1623 514.183 61.0141 515.01 62.4581 516.93C62.8342 517.431 63.3832 517.736 63.9655 517.823C64.5478 517.91 65.1647 517.78 65.6765 517.412C66.7011 516.676 66.9211 515.267 66.1677 514.265C64.5112 512.062 63.4911 511.071 62.504 510.113C61.6258 509.261 60.7906 508.446 59.4133 506.63C59.9608 505.247 60.552 503.888 61.3999 502.697C62.3567 501.352 63.1478 499.884 63.9398 498.414C64.7859 496.844 65.633 495.272 66.684 493.848C67.5176 492.718 68.3334 491.569 69.1486 490.422C70.3264 488.763 71.5033 487.107 72.7317 485.509C73.8288 484.083 75.1705 482.839 76.5054 481.601C77.732 480.464 78.953 479.332 79.9736 478.069C80.9002 476.921 81.7304 475.702 82.5477 474.482C82.7938 474.759 83.0494 475.066 83.3254 475.433C84.9819 477.637 86.002 478.628 86.9891 479.586L86.9902 479.587C87.8915 480.462 88.7432 481.288 90.1872 483.209C90.5633 483.71 91.1123 484.015 91.6946 484.102C92.2769 484.189 92.8937 484.059 93.4055 483.69C94.4302 482.955 94.6502 481.546 93.8967 480.544C92.2402 478.341 91.2201 477.35 90.233 476.392L90.2321 476.391C89.3308 475.516 88.479 474.689 87.035 472.768C86.3791 471.896 85.7748 471.221 85.2105 470.674C85.4685 470.341 85.7326 470.014 86.0053 469.696C87.2166 468.283 88.7029 467.119 90.1709 465.97C91.4663 464.956 92.7474 463.953 93.8128 462.8C95.1713 461.329 96.6971 460.064 98.1954 458.821C99.3454 457.868 100.479 456.928 101.509 455.918C104.033 453.444 106.503 451.188 108.966 449.09C109.215 449.37 109.473 449.681 109.752 450.052C111.409 452.256 112.429 453.246 113.416 454.205L113.417 454.206C114.319 455.081 115.17 455.907 116.614 457.828C116.99 458.329 117.539 458.634 118.122 458.721C118.704 458.808 119.321 458.678 119.833 458.309C120.857 457.574 121.077 456.165 120.324 455.163C118.667 452.96 117.647 451.969 116.66 451.011L116.659 451.01C115.758 450.135 114.906 449.308 113.462 447.387C113.056 446.847 112.67 446.384 112.3 445.979C113.763 444.544 115.175 443.168 116.747 442.11C119.875 440.004 122.964 438.429 125.876 437.246C128.811 436.054 131.532 436.302 134.15 436.541C134.731 436.594 135.308 436.647 135.88 436.683C139.312 436.9 141.823 437.465 144.591 440Z" fill="#99BB44"/>
<path d="M1038.51 481.415C1037.69 478.004 1035.55 475.063 1033.5 472.513C1031.45 469.971 1027.94 469.151 1024.86 467.402C1023.79 466.79 1024.65 464.658 1024.28 463.507C1023.29 460.404 1019.81 458.802 1017.93 456.355C1016.06 453.917 1015.82 449.541 1012.91 447.883C1007.41 444.754 1000.97 446.795 994.786 447.832C994.239 447.923 994.4 446.093 993.894 445.441C991.262 442.052 987.158 440.372 983.666 438.557C980.169 436.738 976.408 435.194 972.028 435.108C967.609 435.022 963.921 436.739 960.342 438.452C956.768 440.162 953.124 441.972 950.359 445.298C949.841 445.921 949.932 444.78 949.137 444.599C945.856 443.851 942.032 444.634 938.768 445.287C933.855 446.269 928.852 447.599 925.605 450.445C922.363 453.287 922.411 458.613 920.873 463.286C920.491 464.449 919.128 465.821 918.052 466.422C913.546 468.94 907.844 470.081 905.63 473.88C903.412 477.684 903.92 483.07 904.139 488.167C904.332 492.654 907.222 496.285 909.962 500.034C912.591 503.632 914.858 508.034 919.362 509.766C923.342 511.295 928.201 511.125 933.304 510.342C935.686 509.976 937.295 507.195 939.59 506.352C941.15 505.778 940.775 508.217 941.707 509.533C944.494 513.463 946.118 517.535 947.764 522.038C949.112 525.726 952.146 528.818 953.028 532.592C953.915 536.384 955.234 540.157 955.758 544.015C956.281 547.86 953.961 551.97 954.231 555.86C954.448 558.967 955.076 562.079 955.37 565.178C955.639 568.009 958.534 568.72 961.434 568.79C967.497 568.937 973.547 570.739 979.611 570.722C982.345 570.715 986.185 567.938 986.42 565.287C986.713 561.993 986.954 558.688 987.235 555.394C987.63 550.767 985.286 545.84 986.099 541.286C986.911 536.732 988.136 532.145 989.498 527.689C990.476 524.49 992.979 521.833 994.368 518.818C995.757 515.805 995.628 511.799 997.626 509.066C999.199 506.917 1000.38 507.093 1002.94 508.293C1006.37 509.899 1009.59 512.656 1013.47 512.479C1015.08 512.368 1016.95 512.964 1018.53 512.674C1024.23 511.626 1028.66 507.389 1032.41 503.075C1035.13 499.94 1037.16 496.64 1038.01 493.053C1038.87 489.448 1039.47 485.384 1038.51 481.415ZM962.767 531.8C961.861 528.281 962.071 524.821 960.93 521.394C959.785 517.955 956.89 514.374 955.323 511.088C957.771 510.642 960.651 510.673 963.109 510.225C964.309 515.562 965.561 515.562 965.436 521.025C965.312 526.454 963.503 526.383 962.767 531.8ZM978.882 531.915C978.22 526.492 978.324 526.562 978.376 521.1C978.427 515.639 975.592 515.188 976.879 509.874C979.306 510.361 982.2 511.306 984.706 511.809C983.065 515.052 984.032 518.772 982.819 522.193C981.611 525.598 979.893 528.429 978.882 531.915Z" fill="#E6E5E3"/>
<path fill-rule="evenodd" clip-rule="evenodd" d="M244.082 587.141C241.753 587.133 239.343 587.128 236.991 587.365C236.16 587.448 235.358 587.603 234.582 587.753L234.582 587.753L234.582 587.753L234.577 587.754L234.565 587.757L234.565 587.757C233.36 587.99 232.223 588.21 231.177 588.119C229.232 587.95 227.224 587.582 225.282 587.226L225.274 587.225L225.264 587.223C224.132 587.016 222.963 586.802 221.808 586.627C220.264 586.393 218.762 585.623 217.17 584.808L217.17 584.808L217.167 584.806C215.89 584.151 214.568 583.474 213.137 583.034C211.791 582.621 210.393 582.332 209.042 582.053L209.041 582.053L209.039 582.053C206.217 581.47 203.551 580.92 201.522 579.331C197.011 575.799 194.692 570.376 195.161 564.454C195.47 560.54 196.612 556.489 198.293 553.341C199.519 551.045 201.534 549.059 203.483 547.138L203.488 547.133L203.493 547.128L203.493 547.128L203.493 547.128C204.362 546.272 205.26 545.387 206.081 544.481C207.739 542.655 209.846 541.278 212.077 539.822L212.077 539.821L212.077 539.821L212.095 539.81C213.199 539.088 214.342 538.342 215.44 537.528C216.739 536.565 217.791 535.342 218.808 534.16C220.006 532.767 221.137 531.452 222.524 530.719C224.34 529.76 226.377 529.135 228.532 528.473L228.536 528.471L228.552 528.467C229.617 528.139 230.717 527.801 231.786 527.419C233.237 526.901 234.892 526.897 236.645 526.892C238.084 526.889 239.571 526.885 241.042 526.591L241.931 526.412C244.691 525.855 247.299 525.33 250.063 525.066C250.732 525.002 251.351 524.836 251.897 524.689L251.904 524.687L251.906 524.687C252.428 524.546 252.922 524.413 253.361 524.395C255.125 524.326 256.852 524.683 258.681 525.061L258.697 525.065C259.735 525.28 260.809 525.502 261.917 525.65C263.421 525.85 264.938 525.989 266.405 526.124L266.409 526.124C270.175 526.47 273.731 526.797 277.102 528.073C280.126 529.219 282.943 530.932 285.667 532.589L285.914 532.739L285.916 532.74L285.916 532.74C286.374 533.019 286.832 533.297 287.291 533.571C288.656 534.389 290.142 535.052 291.58 535.693L291.584 535.695C293.852 536.706 295.995 537.662 297.653 539.156C301.25 542.397 304.293 546.863 306.958 552.809C307.917 554.949 307.45 558.322 306.998 561.585L306.998 561.587L306.859 562.601C306.403 565.985 305.865 569.48 304.773 571.977C304.032 571.917 303.28 571.635 302.441 571.315C302.049 571.166 301.659 571.018 301.266 570.89C297.434 569.642 292.866 568.336 288.031 568.115C285.302 567.991 282.702 568.428 280.187 568.852C279.569 568.956 278.951 569.06 278.333 569.155C277.295 569.315 276.211 569.373 275.062 569.435L275.061 569.435C272.891 569.551 270.648 569.67 268.504 570.508C264.682 572.001 261.407 574.354 258.24 576.629L258.24 576.629L258.234 576.633L257.746 576.983C254.448 579.349 251.013 581.951 248.443 585.453C248.286 585.668 248.203 585.88 248.153 586.052C248.008 586.216 247.881 586.384 247.76 586.554C246.909 586.401 246.052 586.675 245.333 586.91L245.325 586.913C245.05 587.003 244.64 587.137 244.497 587.142L244.082 587.141ZM261.88 611.749C258.67 611.309 255.64 610.894 252.931 609.429C248.402 606.979 246.816 603.547 247.63 597.952C247.77 596.985 248.048 596.041 248.343 595.041L248.344 595.037C248.601 594.167 248.866 593.268 249.037 592.339C249.083 592.09 249.126 591.846 249.167 591.608L249.168 591.604C249.47 589.889 249.669 588.756 250.549 587.84C250.833 587.545 250.95 587.224 251.009 586.999C253.311 583.93 256.474 581.541 259.522 579.355L260.012 579.003C263.029 576.836 266.149 574.595 269.618 573.239C271.304 572.58 273.209 572.478 275.225 572.371C276.398 572.309 277.612 572.243 278.801 572.061C279.426 571.964 280.05 571.859 280.675 571.754L280.696 571.75L280.738 571.743C283.188 571.331 285.506 570.941 287.891 571.053C292.348 571.256 296.497 572.436 300.316 573.68C300.646 573.787 300.972 573.912 301.3 574.037L301.351 574.056L301.355 574.057C301.989 574.299 302.666 574.557 303.397 574.73C303.459 575.036 303.621 575.324 303.879 575.546C304.279 575.89 304.841 576.082 306.932 576.763L306.933 576.764C309.155 577.487 313.289 578.834 314.512 579.898C315.724 580.953 316.425 582.592 317.167 584.328L317.171 584.338L317.171 584.338C317.696 585.563 318.238 586.83 318.998 587.944C320.641 590.352 322.06 592.432 322.336 595.429C322.412 596.25 322.611 597.085 322.805 597.893C323.145 599.317 323.497 600.79 322.991 601.66C320.856 605.331 316.477 607.747 314.057 608.86C311.152 610.197 307.742 610.814 304.445 611.41L304.445 611.41L304.445 611.41L304.442 611.411L304.428 611.414C303.589 611.565 302.756 611.716 301.934 611.878C301.139 612.033 300.284 611.86 299.294 611.658L299.291 611.657L299.291 611.657L299.29 611.657C298.553 611.507 297.718 611.337 296.803 611.289C295.128 611.201 293.447 611.48 291.824 611.751C290.792 611.924 289.818 612.086 288.874 612.153C287.244 612.27 285.689 612.766 284.185 613.246C282.463 613.796 280.833 614.314 279.295 614.21C276.392 614.011 267.773 612.647 264.908 612.194L264.908 612.194L264.907 612.194L264.887 612.19L264.208 612.083C263.448 611.964 262.686 611.859 261.928 611.755L261.88 611.749ZM302.315 633.486C302.277 633.101 302.044 632.571 301.818 632.059L301.818 632.058C301.569 631.49 301.311 630.904 301.175 630.262C300.871 628.833 300.372 627.44 299.844 625.966L299.842 625.96L299.841 625.957C299.267 624.354 298.673 622.697 298.338 620.959C297.911 618.743 297.414 616.995 296.675 615.113C296.611 614.951 296.582 614.784 296.579 614.62L291.854 614.729C290.947 614.878 290.019 615.021 289.093 615.087C287.828 615.177 286.512 615.597 285.117 616.042C283.385 616.595 281.6 617.165 279.709 617.165C279.502 617.165 279.295 617.158 279.086 617.144C277.843 617.059 275.651 616.778 273.296 616.444C273.329 617.722 273.394 619.318 273.462 620.988L273.465 621.059C273.61 624.591 273.759 628.242 273.687 630.376C273.629 632.102 273.229 635.549 272.876 638.595L272.876 638.595L272.874 638.612C272.655 640.499 272.429 642.451 272.418 642.938C272.348 646.004 274.34 653.128 275.326 654.04C276.093 654.586 276.838 655.336 277.628 656.13L277.628 656.13C279.076 657.587 280.574 659.094 282.359 659.473C284.206 659.862 286.265 659.076 288.259 658.315C289.22 657.948 290.127 657.602 291.01 657.387L291.469 657.276C294.806 656.47 297.957 655.709 299.717 653.464C301.919 650.653 302.225 646.893 302.094 644.233C302.009 642.51 302.126 640.79 302.24 639.127L302.24 639.125L302.24 639.125C302.373 637.162 302.499 635.309 302.315 633.486ZM269.888 638.281C269.594 640.817 269.427 642.281 269.414 642.873C269.378 644.435 269.907 647.734 270.755 650.713C269.939 650.856 269.379 650.981 269.23 651.073C266.199 652.938 262.733 653.884 259.132 654.218C253.613 654.728 248.537 653.411 243.902 650.452C239.31 647.522 236.651 643.31 234.942 638.247C233.918 635.215 233.164 632.237 233.225 629.061C233.26 627.256 233.681 625.455 234.101 623.654C234.528 621.827 234.956 619.999 234.979 618.167C234.997 616.777 234.617 615.378 234.237 613.98C233.83 612.482 233.424 610.985 233.507 609.499C233.541 608.891 233.304 608.262 233.069 607.635C232.823 606.983 232.58 606.333 232.643 605.715C232.762 604.555 232.953 603.411 233.144 602.271C233.412 600.666 233.679 599.068 233.743 597.436C233.772 596.704 233.836 594.202 233.767 590.889C234.237 590.814 234.702 590.728 235.16 590.639L235.173 590.637C235.912 590.494 236.609 590.359 237.299 590.29C239.467 590.072 241.768 590.077 243.995 590.081L244.074 590.082L244.491 590.083H244.497C245.117 590.083 245.712 589.888 246.287 589.699C246.347 589.679 246.418 589.656 246.49 589.633C246.383 590.117 246.295 590.609 246.206 591.11C246.166 591.34 246.125 591.576 246.08 591.818C245.937 592.598 245.704 593.386 245.458 594.222L245.456 594.228C245.146 595.28 244.826 596.367 244.656 597.538C243.665 604.353 245.832 608.949 251.478 612.003C254.673 613.732 258.124 614.204 261.462 614.661L261.463 614.661C262.219 614.765 262.977 614.869 263.734 614.987L264.408 615.094L264.465 615.103C265.685 615.296 267.897 615.645 270.281 616.003C270.309 617.401 270.384 619.241 270.463 621.177C270.599 624.494 270.752 628.253 270.684 630.278C270.629 631.89 270.219 635.431 269.889 638.277L269.888 638.281Z" fill="#E6E5E3"/>
<path fill-rule="evenodd" clip-rule="evenodd" d="M699.397 67.9406C696.965 69.7369 695.34 70.9367 694.549 68.0767C693.623 64.7274 694.005 63.9073 695.377 60.9642C695.511 60.6758 695.655 60.3669 695.808 60.0333C696.426 58.6871 697.111 57.9086 697.699 57.2396C698.63 56.1808 699.319 55.3966 699.121 53.0706C698.904 50.5256 698.141 50.0216 696.887 49.1934C695.987 48.5988 694.834 47.8371 693.448 46.0333C692.799 45.1878 691.808 44.4564 690.754 43.6789C689.297 42.6038 687.721 41.4403 686.762 39.7646C685.951 38.3458 685.424 36.6553 684.877 34.8985C684.513 33.7305 684.14 32.5332 683.669 31.367C682.804 29.2298 682.139 26.5248 681.508 23.9558C681.379 23.4278 681.25 22.9056 681.122 22.3952C685.039 21.0339 686.443 21.4083 688.892 22.0621C689.994 22.3561 691.308 22.7066 693.157 22.9812C692.904 24.0017 692.555 24.8497 692.229 25.6418C691.721 26.8767 691.268 27.976 691.322 29.3823C691.423 32.0467 692.066 34.796 692.803 36.9944C693.354 38.6403 694.577 39.9392 695.706 41.1383C696.367 41.8403 696.996 42.508 697.439 43.1912C698.358 44.6085 698.677 45.9111 698.938 46.9755C699.356 48.6838 699.624 49.7789 701.981 49.7517C704.343 49.7244 705.284 48.9401 706.343 48.0575C707.208 47.336 708.152 46.5488 710.016 46.0559C711.464 45.6729 712.432 45.2543 713.262 44.896C714.805 44.2289 715.865 43.7709 718.633 44.1414C717.849 47.3376 716.698 50.6578 715.588 53.0354C715.13 54.0145 714.739 54.9999 714.36 55.9506C713.557 57.9701 712.816 59.8329 711.643 61.1466C710.013 62.9723 707.783 63.737 705.811 64.4128C704.975 64.6996 704.185 64.9704 703.508 65.2994C701.949 66.0563 700.578 67.0687 699.397 67.9406ZM698.355 80.5708C697.042 77.9646 695.516 74.3923 694.664 71.9237C695.565 71.9294 696.512 71.9771 697.464 72.0251C699.87 72.1463 702.306 72.269 704.091 71.7191C707.03 70.8136 709.68 69.5295 711.789 67.8789C713.432 66.5933 714.428 64.8162 715.393 63.0929C715.799 62.3697 716.199 61.6559 716.639 60.9919C718.051 58.8624 718.813 56.6791 719.528 54.6284C719.662 54.2453 719.794 53.8668 719.928 53.4941C720.615 51.5906 720.604 50.3021 720.596 49.2439C720.584 47.7732 720.575 46.7473 722.446 45.1328C722.826 45.3429 723.234 45.5636 723.662 45.7948C725.834 46.9681 728.505 48.4105 730.362 50.1073C732.305 51.8828 734.373 53.937 736.307 56.1882C737.191 57.2171 737.672 58.6002 738.164 60.0177C738.638 61.3811 739.123 62.7763 739.988 63.9184C740.761 64.9392 741.794 65.8069 742.844 66.6899C743.998 67.6603 745.175 68.6491 746.054 69.88C746.814 70.944 747.677 71.9628 748.553 72.9956C749.493 74.1039 750.446 75.2282 751.299 76.4417C752.068 77.5365 752.605 78.8061 753.148 80.0892C753.711 81.4222 754.281 82.7698 755.124 83.9513C755.942 85.0977 756.933 86.1416 757.932 87.1946C758.878 88.1919 759.832 89.1973 760.654 90.3056C761.434 91.3561 762.06 92.5302 762.69 93.7118C763.385 95.0173 764.086 96.3319 765.005 97.4992C765.885 98.6182 767.08 99.5025 768.281 100.392C769.411 101.228 770.546 102.068 771.432 103.112C772.162 103.973 772.856 104.863 773.552 105.756C774.564 107.055 775.58 108.359 776.719 109.585C777.598 110.532 778.315 111.637 779.034 112.745C779.861 114.02 780.691 115.299 781.775 116.351C782.577 117.129 783.348 117.955 784.122 118.785C785.276 120.022 786.436 121.266 787.719 122.371C788.845 123.34 790.237 124.016 791.635 124.694C792.857 125.288 794.084 125.883 795.141 126.679C796.471 127.681 797.921 128.509 799.382 129.342C800.368 129.905 801.359 130.47 802.32 131.094C803.414 131.803 804.32 132.824 805.23 133.852C806.267 135.021 807.31 136.198 808.644 136.927C809.952 137.644 811.476 137.984 813.01 138.327C814.342 138.625 815.681 138.924 816.895 139.472C818.056 139.997 819.121 140.776 820.194 141.562C821.467 142.493 822.752 143.434 824.22 143.965C825.68 144.493 827.177 144.731 828.699 144.972C829.905 145.163 831.126 145.357 832.355 145.699C830.818 146.215 829.283 146.302 827.742 146.388C826.572 146.454 825.398 146.521 824.216 146.775C822.919 147.055 821.701 147.772 820.486 148.486C819.096 149.303 817.71 150.118 816.216 150.274C814.688 150.433 813.126 150.029 811.565 149.627C810.245 149.286 808.927 148.945 807.632 148.946C805.071 148.947 802.585 148.706 800.044 148.459C799.78 148.433 799.515 148.408 799.249 148.382C797.959 148.258 796.624 148.435 795.288 148.611C793.715 148.819 792.14 149.027 790.633 148.746C789.147 148.469 787.77 147.731 786.391 146.993C785.2 146.354 784.006 145.715 782.738 145.371C781.453 145.022 780.03 145.075 778.604 145.129C777.016 145.19 775.425 145.25 774.019 144.754C772.427 144.192 770.89 143.428 769.354 142.665C768.33 142.157 767.307 141.648 766.269 141.201C764.821 140.576 763.48 139.717 762.138 138.858C761.086 138.184 760.033 137.51 758.929 136.949C757.759 136.355 756.459 135.973 755.157 135.591C753.667 135.153 752.176 134.715 750.882 133.958C749.537 133.172 748.321 132.167 747.107 131.163C746.126 130.352 745.148 129.543 744.105 128.853C743.487 128.444 742.865 128.038 742.242 127.633C740.497 126.497 738.75 125.36 737.1 124.134C735.853 123.208 734.769 122.086 733.689 120.968C732.808 120.057 731.93 119.149 730.97 118.352C730.178 117.696 729.371 117.061 728.567 116.428C727.162 115.322 725.765 114.223 724.474 113.03C723.922 112.52 723.366 112.015 722.812 111.511C721.28 110.119 719.76 108.738 718.355 107.287C717.273 106.169 716.44 104.858 715.615 103.561C714.934 102.489 714.259 101.427 713.454 100.489C712.359 99.2148 711.469 97.8382 710.59 96.4784C709.977 95.53 709.37 94.5897 708.701 93.6981C708.006 92.7699 707.268 91.899 706.542 91.0409C705.472 89.7781 704.426 88.5426 703.57 87.1917C702.865 86.0788 701.966 85.0965 701.084 84.1323C700.033 82.983 699.005 81.8594 698.355 80.5708Z" fill="#99BB44"/>
<path d="M923.05 357.337C922.289 357.337 921.965 356.679 921.204 356.679C918.275 355.57 916.125 354.438 916.212 351.438C916.279 349.158 918.024 346.896 918.016 344.614C918.008 342.334 917.03 340.055 917.03 337.775C917.03 337.283 917.26 336.423 917.26 335.735C916.616 336.059 915.596 335.946 915.196 336.167C913.334 337.195 911.447 338.182 909.587 339.213C907.727 340.244 906.768 342.849 904.899 343.865C902.43 345.207 898.975 344.322 897.404 342.482C895.275 339.986 896.169 335.96 899.234 334.24C901.061 333.214 903.255 332.819 905.087 331.802C906.919 330.786 908.401 329.161 910.237 328.152C912.074 327.143 914.495 327.159 916.335 326.157C917.14 325.718 916.808 324.55 916.79 323.618C916.728 320.454 916.126 317.269 916.172 314.104C916.184 313.295 917.01 312.485 916.301 312.091C913.886 310.745 911.608 309.171 909.201 307.811C906.794 306.452 904.061 305.646 901.663 304.272C900.997 303.891 899.972 303.099 899.324 303.476C896.545 305.089 893.879 306.835 891.046 308.354C890.168 308.825 890.166 310.078 890.181 311.024C890.231 313.98 890.494 316.933 890.523 319.889C890.551 322.845 891.203 325.798 891.217 328.754C891.221 329.674 891.547 330.969 891.277 331.839C890.609 333.99 887.346 333.983 885.068 333.719C882.704 333.445 879.705 332.7 879.622 330.324C879.545 328.114 880.764 325.867 880.734 323.656C880.705 321.445 879.74 319.248 879.704 317.037C879.696 316.552 880.147 316.431 880.112 315.808C879.502 316.133 878.869 315.379 878.426 315.629C876.388 316.778 874.691 318.506 872.654 319.656C870.617 320.806 868.266 321.421 866.228 322.569C862.287 324.79 860.76 324.256 858.839 320.239C858.839 319.494 858.937 319.288 858.937 318.543C859.692 316.732 860.467 315.746 862.178 314.814C864.213 313.706 866.203 312.507 868.219 311.367C870.235 310.227 872.416 309.365 874.432 308.225C874.811 308.011 873.849 307.334 874.322 307.024C873.714 306.661 874.23 306.214 873.785 305.957C871.965 304.903 869.899 304.255 868.078 303.203C866.257 302.151 865.132 299.955 863.318 298.891C861.121 297.602 859.667 296.329 860.159 294.239C860.971 290.785 864.76 289.134 868.07 291.019C869.891 292.056 871.754 293.027 873.569 294.073C875.385 295.119 877.292 296.017 879.103 297.071C880.914 298.125 882.964 298.793 884.771 299.853C885.51 300.286 886.128 302.141 886.892 301.693C889.703 300.042 892.134 297.79 894.998 296.229C895.724 295.833 894.692 295.071 894.687 294.277C894.67 291.576 895.584 288.868 895.584 286.167C895.584 283.466 894.902 280.758 894.925 278.058C894.932 277.176 895.422 276.802 894.68 276.396C891.902 274.874 889.589 272.593 886.87 270.974C886.011 270.463 885.072 271.403 884.258 271.879C882.49 272.913 880.31 273.269 878.54 274.3C876.77 275.331 874.94 276.25 873.161 277.265C871.382 278.28 870.32 280.523 868.525 281.51C867.362 282.149 865.422 282.522 864.095 282.435C862.05 282.301 860.296 279.972 859.891 277.979C859.497 276.039 861.049 274.591 863.003 273.438C864.875 272.332 866.678 271.128 868.563 270.043C870.448 268.959 872.095 267.479 873.978 266.392C874.409 266.143 875.133 265.445 875.727 265.086C873.45 263.8 871.116 262.476 868.919 261.232C866.668 259.958 863.88 259.676 861.639 258.449C859.93 257.513 858.596 255.896 857.841 254.086C857.841 253.34 857.752 252.404 857.752 251.659C859.69 247.605 862.394 247.256 866.358 249.493C868.416 250.654 870.89 251.11 872.947 252.273C875.003 253.436 877.283 254.221 879.341 255.383C879.772 255.626 879.128 255.894 879.746 256.222C879.746 255.369 881.243 255.501 881.252 254.9C881.284 252.759 881.522 250.62 881.552 248.478C881.582 246.337 879.861 244.16 879.93 242.02C879.997 239.932 882.155 238.573 884.169 237.976C886.096 237.405 888.999 237.278 890.021 238.954C890.733 240.119 889.479 242.061 889.494 243.423C889.516 245.425 889.951 247.414 889.94 249.416C889.93 251.418 890.629 253.425 890.6 255.427C890.572 257.428 890.438 259.429 890.405 261.43C890.392 262.281 890.923 262.096 891.693 262.515C894.558 264.075 897.013 266.355 899.835 267.988C900.48 268.362 900.952 268.37 901.621 267.986C904.019 266.612 906.789 265.867 909.196 264.507C911.604 263.147 914.071 261.898 916.486 260.552C917.193 260.158 916.19 259.029 916.178 258.217C916.131 255.052 917.086 251.874 917.149 248.709C917.168 247.774 916.786 247.212 915.984 246.774C914.158 245.778 911.831 245.655 910.009 244.652C908.187 243.649 906.301 242.75 904.483 241.741C902.665 240.732 901.392 238.781 899.577 237.766C896.761 236.193 896.353 233.75 897.763 231.249C899.159 228.775 901.087 228.687 903.904 230.205C906.359 231.528 909.164 232.224 911.605 233.572C913.288 234.501 915.196 234.67 917.138 235.739C917.138 234.998 917.98 235.039 917.98 234.547C917.98 232.266 916.702 229.983 916.71 227.701C916.718 225.42 916.572 223.153 916.507 220.873C916.422 217.877 917.999 215.892 920.936 214.786C921.697 214.786 922.721 213.597 923.483 213.597C926.42 214.703 927.931 217.886 927.845 220.882C927.781 223.162 927.986 225.419 927.993 227.701C928.001 229.982 927.944 232.267 927.944 234.548C927.944 235.04 927.442 234.68 927.442 235.385C928.135 235.022 927.737 234.932 928.179 234.688C930.062 233.649 932.162 232.989 934.043 231.945C935.923 230.901 938.519 231.131 940.417 230.119C943.545 228.453 946.817 228.941 947.618 232.196C948.156 234.378 946.343 235.653 943.997 236.96C942.18 237.973 941.369 240.717 939.55 241.726C937.731 242.735 935.144 242.413 933.322 243.416C931.5 244.419 929.505 245.112 927.678 246.107C926.869 246.548 926.16 247.795 926.178 248.724C926.239 251.889 927.022 255.041 926.974 258.206C926.962 259.02 927.33 259.349 928.035 259.742C930.451 261.088 932.887 262.401 935.295 263.76C937.702 265.12 939.836 266.94 942.234 268.315C942.905 268.7 943.706 268.581 944.35 268.208C947.13 266.597 949.746 264.707 952.58 263.19C953.466 262.716 953.169 262.232 953.154 261.294C953.106 258.338 952.871 255.38 952.842 252.423C952.813 249.467 952.576 246.507 952.562 243.551C952.557 242.631 954.673 241.984 954.946 241.114C955.62 238.968 956.893 236.81 959.18 237.069C961.522 237.334 962.91 239.68 962.991 242.055C963.066 244.265 964.372 246.451 964.401 248.662C964.431 250.874 963.675 253.095 963.711 255.306C963.719 255.788 963.696 256.183 963.733 256.838C966.061 255.524 968.073 253.819 970.333 252.543C972.639 251.242 975.219 250.46 977.502 249.172C981.464 246.939 983.94 247.779 985.861 251.826C985.861 252.572 986.237 253.349 986.237 254.094C985.485 255.907 983.751 256.876 982.042 257.809C980.008 258.919 977.589 259.379 975.573 260.519C973.557 261.66 971.425 262.604 969.409 263.744C969.028 263.96 968.662 265.278 968.186 265.59C968.789 265.95 969.571 266.498 970.016 266.755C971.857 267.819 974.493 267.562 976.337 268.622C978.18 269.683 979.251 272.02 981.079 273.106C984.113 274.908 984.329 277.639 981.987 279.984C980.27 281.702 978.673 282.024 976.209 280.612C974.405 279.579 972.479 278.748 970.678 277.71C968.876 276.672 966.658 276.321 964.86 275.277C963.061 274.234 961.328 273.077 959.534 272.026C958.795 271.593 958.545 271.228 957.781 271.677C954.971 273.329 951.997 274.706 949.131 276.264C948.397 276.664 947.335 277.284 947.339 278.068C947.355 280.769 947.15 283.464 947.15 286.165C947.15 288.866 948.179 291.566 948.162 294.267C948.157 295.059 948.182 296.075 948.909 296.47C951.692 297.984 954.788 298.95 957.51 300.567C958.388 301.088 959.085 301.279 959.992 300.744C961.756 299.703 963.485 298.608 965.254 297.576C967.023 296.544 968.297 294.682 970.076 293.667C971.855 292.652 973.694 291.714 975.489 290.726C976.652 290.087 978.56 290.813 979.867 290.944C982.047 291.161 982.39 292.485 982.856 294.601C983.28 296.532 983.834 299.079 981.884 300.232C980.013 301.339 977.461 301.332 975.577 302.417C973.693 303.503 972.551 305.819 970.669 306.907C970.236 307.157 969.037 306.768 968.443 307.127C970.717 308.411 973.355 309.136 975.552 310.38C977.801 311.652 979.391 314.005 981.63 315.231C983.339 316.167 985.379 316.443 986.134 318.253C986.134 318.998 985.16 319.478 985.16 320.223C983.258 324.228 981.289 325.579 977.357 323.361C975.298 322.2 972.993 321.458 970.936 320.295C968.879 319.132 967.017 317.641 964.959 316.48C964.529 316.237 964.017 315.399 963.41 315.078C963.41 315.889 963.036 316.738 963.027 317.295C962.994 319.459 963.993 321.638 963.962 323.802C963.932 325.967 963.874 328.138 963.802 330.301C963.724 332.652 961.38 333.778 959.018 334.055C956.738 334.322 955.106 333.508 954.426 331.345C954.154 330.476 952.966 329.676 952.971 328.756C952.985 325.777 954.004 322.804 954.033 319.825C954.063 316.846 952.706 313.847 952.755 310.868C952.768 310.018 953.131 310.211 952.359 309.791C949.494 308.234 946.727 306.468 943.906 304.836C943.259 304.462 943.335 304.353 942.667 304.736C940.269 306.11 938.128 307.928 935.721 309.288C933.314 310.647 930.561 311.424 928.146 312.77C927.439 313.164 926.98 313.301 926.992 314.113C927.039 317.278 926.473 320.435 926.412 323.599C926.394 324.528 927.729 324.26 928.537 324.7C930.363 325.696 931.93 327.149 933.752 328.152C935.574 329.155 936.78 331.223 938.598 332.232C940.417 333.241 942.81 333.258 944.626 334.272C947.437 335.841 947.39 338.433 945.966 340.878C944.525 343.352 942.243 344.883 939.436 343.361C937.566 342.347 935.461 341.73 933.602 340.698C931.742 339.667 930.803 337.041 928.941 336.013C928.541 335.792 927.077 335.456 926.433 335.131C926.433 335.819 927.12 337.282 927.12 337.774C927.12 340.055 926.416 342.335 926.408 344.616C926.4 346.898 925.866 349.212 925.932 351.491C926.02 354.492 925.978 356.227 923.05 357.337L923.05 357.337ZM938.699 286.229C938.699 283.531 939.368 280.852 939.42 278.155C939.436 277.315 937.71 277.478 936.933 277.047C934.538 275.716 933.012 272.902 930.628 271.553C928.244 270.205 925.388 269.654 923.016 268.286C922.244 267.84 921.482 267.526 920.748 267.948C918.393 269.3 915.858 270.342 913.495 271.679C911.132 273.017 908.741 274.296 906.369 275.619C905.628 276.031 906.712 277.177 906.72 278.055C906.742 280.754 906.29 283.46 906.29 286.158C906.29 288.857 906.133 291.559 906.111 294.257C906.103 295.134 905.875 295.859 906.616 296.272C908.988 297.594 911.714 298.314 914.077 299.651C916.44 300.989 918.196 303.344 920.551 304.697C921.284 305.118 922.108 304.256 922.881 303.81C925.253 302.442 927.327 300.563 929.711 299.214C932.095 297.865 935.149 297.659 937.544 296.329C938.321 295.898 939.048 295.012 939.031 294.172C938.979 291.521 938.699 288.881 938.699 286.229V286.229Z" fill="#99BB44"/>
<path fill-rule="evenodd" clip-rule="evenodd" d="M125.207 253.029C125.192 253.615 125.177 254.197 125.18 254.778C125.185 255.787 125.349 256.805 125.511 257.814C125.79 259.54 126.064 261.239 125.53 262.819C124.753 265.12 123.231 267.243 121.725 269.344C121.612 269.502 121.499 269.659 121.387 269.817C120.371 271.239 118.964 272.39 117.506 273.582C116.829 274.136 116.14 274.699 115.474 275.303C113.861 276.766 113.366 279.596 112.955 281.95C112.907 282.223 112.86 282.49 112.813 282.747C112.566 284.098 112.559 285.49 112.552 286.881C112.545 288.262 112.538 289.642 112.297 290.983C112.055 292.325 111.353 293.589 110.651 294.853C109.946 296.123 109.24 297.393 109.002 298.743C108.781 299.993 108.545 301.241 108.31 302.49C108.037 303.93 107.765 305.371 107.516 306.815C107.282 308.168 107.442 309.585 107.602 311.001C107.76 312.407 107.919 313.812 107.693 315.155C107.476 316.452 107.219 317.741 106.962 319.03C106.684 320.423 106.407 321.816 106.179 323.218C105.96 324.559 105.429 325.853 104.898 327.146C104.36 328.456 103.822 329.765 103.609 331.124C103.509 331.758 103.452 332.385 103.396 332.993C103.256 334.523 103.127 335.933 102.361 337.049C101.266 338.646 99.6771 340.42 97.5333 341.329C96.9102 341.329 96.1991 341.42 95.4879 341.511C94.7766 341.601 94.0654 341.692 93.4423 341.692C93.1857 341.566 93.0061 340.967 92.8265 340.367C92.6316 339.717 92.4366 339.066 92.1431 339.018C90.812 338.801 89.4908 338.526 88.1697 338.252C86.8504 337.977 85.5311 337.703 84.202 337.486C82.8718 337.269 81.5332 337.102 80.1946 336.935C78.8561 336.768 77.5175 336.601 76.1874 336.384C74.8572 336.167 73.4667 336.303 72.0762 336.439C70.6861 336.574 69.2959 336.71 67.9659 336.493C66.6344 336.277 65.2869 336.154 63.9394 336.032C62.5946 335.909 61.2497 335.787 59.9208 335.571C58.5914 335.355 57.3097 334.858 56.0281 334.362C54.7449 333.865 53.4618 333.367 52.1307 333.152C50.8021 332.936 49.5008 332.56 48.1995 332.183C46.8948 331.805 45.5901 331.428 44.2579 331.212C42.9268 330.998 41.5148 331.262 40.1027 331.527C38.6921 331.791 37.2815 332.055 35.9515 331.842C34.6225 331.628 33.3356 331.165 32.0487 330.701C30.7587 330.237 29.4686 329.772 28.1361 329.559C26.817 329.349 25.5048 329.096 24.1926 328.844C22.8571 328.587 21.5216 328.33 20.1789 328.118C18.7736 327.895 17.3669 327.68 15.9602 327.466C14.7021 327.274 13.4439 327.082 12.1868 326.884C9.98039 326.537 7.93991 326.061 6.06777 325.23C4.18669 324.395 3.02701 323.124 1.64924 321.288C1.64924 320.223 1.23694 319.179 0.824633 318.135C0.412319 317.091 0 316.046 0 314.981C0.232666 313.755 0.929816 312.59 1.62697 311.425C2.32347 310.261 3.01997 309.097 3.25329 307.872C3.48635 306.649 3.79458 305.439 4.10282 304.228C4.41204 303.014 4.72125 301.8 4.95456 300.573C5.18809 299.344 5.21849 298.079 5.24889 296.813C5.27915 295.554 5.30942 294.294 5.54002 293.071C5.77169 291.842 5.6526 290.551 5.53351 289.259C5.41496 287.974 5.29642 286.689 5.52387 285.465C5.7362 284.323 6.40941 283.257 7.08268 282.192C7.77388 281.099 8.46514 280.005 8.65781 278.827C8.94227 277.089 9.30601 275.386 9.67175 273.673C9.79502 273.096 9.91852 272.518 10.0393 271.937C10.6899 268.807 10.7959 265.609 10.5964 262.633C10.4055 259.787 9.88557 256.524 8.2766 253.503C7.05658 251.213 6.50025 249.161 6.08784 246.859C5.97431 246.225 5.8351 245.608 5.69788 245C5.30468 243.258 4.92784 241.587 5.21859 239.807C5.60505 237.44 6.24222 235.145 7.35247 232.883C8.03524 231.493 9.1155 230.359 10.2327 229.186C10.8241 228.565 11.4259 227.934 11.9845 227.247C12.3043 226.854 12.6119 226.466 12.914 226.084C14.1802 224.484 15.3498 223.006 16.9142 221.855C18.9874 220.33 21.0207 219.095 23.3743 218.256C24.0721 218.008 24.7661 217.711 25.4649 217.412C27.1187 216.706 28.7993 215.987 30.6198 215.867C32.0098 215.776 33.38 216.33 34.7866 216.899C35.8417 217.326 36.9173 217.761 38.037 217.938C39.3623 218.147 40.715 218.19 42.0676 218.232C43.4358 218.275 44.8039 218.318 46.1439 218.534C47.4728 218.748 48.8551 218.648 50.2375 218.548C51.627 218.448 53.0165 218.347 54.3517 218.566C55.6852 218.784 56.9398 219.46 58.1944 220.136C59.4455 220.81 60.6967 221.484 62.0261 221.704C63.356 221.924 64.7615 221.71 66.167 221.495C67.5755 221.281 68.984 221.066 70.3165 221.289C71.6491 221.511 72.9387 221.979 74.2283 222.447C75.5148 222.913 76.8013 223.38 78.1305 223.603C79.4598 223.826 80.8136 223.911 82.1674 223.995C83.5241 224.08 84.8808 224.165 86.2129 224.389C87.5392 224.612 88.8635 224.847 90.1878 225.082C91.5208 225.318 92.8537 225.555 94.1888 225.779C95.5257 226.004 96.8712 226.18 98.2166 226.356C99.5495 226.531 100.882 226.706 102.207 226.927C105.001 227.395 107.579 228.378 109.931 229.369C112.478 230.442 114.625 232.053 116.622 233.737C117.144 234.177 117.7 234.604 118.262 235.036C119.865 236.268 121.518 237.538 122.569 239.25C123.414 240.624 123.727 242.317 124.049 244.06C124.23 245.035 124.413 246.026 124.694 246.985C125.308 249.082 125.257 251.073 125.207 253.029ZM117.91 256.988C117.942 256.502 118 255.975 118.062 255.417L118.062 255.416C118.285 253.392 118.562 250.872 117.822 248.224C117.08 245.568 115.046 243.964 113.252 242.548L113.251 242.548C112.553 241.997 111.894 241.477 111.391 240.953L110.975 240.518L110.973 240.516C109.068 238.521 107.097 236.458 104.113 235.28C103.679 235.109 103.24 234.931 102.796 234.751L102.79 234.748C100.575 233.849 98.0641 232.831 95.3416 232.353C94.0124 232.119 92.6775 232.024 91.3869 231.932L91.3815 231.932L91.378 231.931C90.1076 231.841 88.9072 231.755 87.7361 231.548C86.4451 231.321 85.1402 231.158 83.8786 231L83.8773 231C82.6548 230.847 81.3914 230.689 80.1795 230.475C79.0288 230.272 77.8907 229.926 76.6858 229.559L76.6728 229.555C75.4225 229.174 74.1289 228.781 72.7799 228.544C71.3314 228.29 69.8985 228.395 68.5118 228.497L68.507 228.498C67.264 228.591 66.0896 228.678 65.0344 228.493C63.7186 228.264 62.4007 228.051 61.0833 227.837L61.066 227.834L61.0634 227.834C59.8776 227.642 58.6919 227.45 57.5083 227.246C56.5434 227.08 55.5304 226.487 54.4586 225.858L54.4572 225.857C53.1833 225.11 51.8661 224.338 50.3235 224.077C48.9955 223.852 47.6578 223.73 46.3643 223.611C45.1017 223.496 43.9094 223.386 42.7272 223.19L42.6189 223.172C39.5784 222.668 36.4349 222.149 33.5589 222.623C31.0029 223.045 28.8692 224.481 26.8054 225.871L26.8039 225.872L26.7479 225.909C26.2816 226.223 25.8192 226.534 25.3577 226.826C23.207 228.19 21.1955 230.125 19.0278 232.918C17.7007 234.627 17.1599 236.347 16.7257 237.728L16.723 237.737C16.5433 238.308 16.3738 238.848 16.1732 239.308L16.003 239.698C15.1027 241.754 14.3254 243.529 14.9263 246.226C15.0368 246.722 15.0276 247.421 15.0176 248.16L15.0175 248.162C14.9975 249.69 14.9725 251.591 15.9257 253.469C16.3151 254.235 16.8813 254.95 17.4289 255.642L17.4305 255.644L17.431 255.645C18.3329 256.783 19.1845 257.858 19.2356 259.017C19.2717 259.827 18.7359 260.845 18.1687 261.923L18.1672 261.925C17.5623 263.073 16.9374 264.261 16.7864 265.573C16.6289 266.943 16.6912 268.273 16.7461 269.447L16.7462 269.449L16.7464 269.452C16.7974 270.549 16.8455 271.584 16.6938 272.349C16.4503 273.579 16.5306 274.777 16.6083 275.936C16.6716 276.874 16.7309 277.761 16.6066 278.558C16.4653 279.463 16.3541 280.379 16.2466 281.264L16.2443 281.283L16.2406 281.314C16.1091 282.397 15.9732 283.516 15.7839 284.581C15.5805 285.729 14.8906 286.902 14.1595 288.144L14.1586 288.146C13.3288 289.556 12.4709 291.014 12.169 292.685C11.905 294.15 11.7605 295.63 11.6209 297.06C11.4799 298.506 11.3464 299.871 11.1002 301.226C10.8106 302.822 10.922 304.401 11.0298 305.929L11.03 305.932C11.1295 307.337 11.2233 308.663 11.0016 309.889L10.9776 310.021V310.155C10.9776 310.867 10.7494 311.677 10.5076 312.535L10.5068 312.538C10.2207 313.552 9.92496 314.601 9.92496 315.726V316.207L10.2069 316.601C12.849 320.294 16.9902 321.251 20.6648 321.857C21.9597 322.071 23.234 322.417 24.583 322.784L24.5857 322.784C25.9404 323.152 27.3417 323.533 28.7835 323.773C30.1203 323.996 31.4872 324.299 32.8091 324.593L32.8121 324.594C34.1562 324.892 35.546 325.2 36.9463 325.436C38.4918 325.696 40.0316 325.597 41.5198 325.5L41.5309 325.5L41.5472 325.499C42.9137 325.41 44.2043 325.327 45.3871 325.527C46.7745 325.762 48.1592 326.012 49.5439 326.261L49.544 326.261C50.8913 326.505 52.2389 326.748 53.5883 326.977C54.8959 327.2 56.1785 327.524 57.5362 327.869L57.5432 327.871C58.8961 328.214 60.2951 328.568 61.7215 328.811C63.1075 329.048 64.5128 329.252 65.8714 329.45L65.8962 329.454C67.2327 329.648 68.6135 329.849 69.9563 330.079C71.2705 330.303 72.5573 330.614 73.9199 330.944L73.922 330.945C75.2771 331.272 76.6785 331.611 78.1003 331.854C79.3987 332.076 80.672 332.401 82.0196 332.745L82.0373 332.749L82.0566 332.754C83.4088 333.099 84.8066 333.455 86.233 333.698C86.3552 333.719 86.4739 333.728 86.5878 333.728C87.1076 333.728 87.5375 333.539 87.819 333.413H87.9953C88.9332 333.413 89.6044 333.029 90.0945 332.748L90.1012 332.744C90.3002 332.63 90.5236 332.503 90.6103 332.503H90.9499L91.2584 332.365C95.472 330.491 96.5077 328.194 97.1261 324.061C97.347 322.587 97.6378 321.053 97.9456 319.43L97.9487 319.413C98.1512 318.346 98.3577 317.257 98.5506 316.15C98.7282 315.132 99.3396 314.05 99.9873 312.904C100.747 311.56 101.533 310.17 101.833 308.565C102.124 307.008 101.857 305.456 101.599 303.954L101.598 303.954C101.37 302.627 101.155 301.374 101.361 300.306C101.599 299.073 102.009 297.861 102.444 296.577L102.449 296.563C102.887 295.266 103.341 293.924 103.61 292.535C103.89 291.089 104.061 289.652 104.226 288.262L104.227 288.251C104.381 286.96 104.526 285.739 104.75 284.555C104.992 283.271 105.447 281.993 105.887 280.757C106.347 279.464 106.822 278.127 107.059 276.771C107.154 276.228 107.222 275.646 107.294 275.03L107.294 275.027C107.471 273.519 107.712 271.457 108.446 270.759C109.332 269.916 110.561 269.328 111.75 268.76L111.752 268.759C113.299 268.019 114.899 267.254 115.831 265.864C117.508 263.363 117.698 260.348 117.865 257.688V257.688L117.91 256.988ZM111.276 244.917L111.286 244.925L111.287 244.926C112.851 246.16 114.328 247.326 114.804 249.028C115.388 251.12 115.156 253.23 114.952 255.091L114.95 255.101C114.886 255.688 114.825 256.243 114.788 256.788L114.742 257.501L114.742 257.503C114.592 259.895 114.436 262.368 113.214 264.191C112.753 264.879 111.599 265.431 110.377 266.015C109.032 266.657 107.508 267.386 106.263 268.57C104.729 270.029 104.44 272.503 104.186 274.685L104.181 274.727C104.116 275.283 104.054 275.809 103.976 276.257C103.782 277.364 103.369 278.525 102.932 279.754C102.453 281.098 101.959 282.488 101.673 284.001C101.431 285.283 101.273 286.609 101.121 287.892L101.119 287.909L101.118 287.915C100.959 289.25 100.795 290.631 100.536 291.967C100.305 293.163 99.9011 294.355 99.4735 295.618L99.4725 295.621C99.0255 296.942 98.5633 298.308 98.2868 299.74C97.9774 301.343 98.2497 302.928 98.5133 304.461C98.7368 305.76 98.9476 306.987 98.7551 308.016C98.5471 309.129 97.9171 310.244 97.2502 311.425L97.2481 311.428C96.5032 312.746 95.7333 314.109 95.4667 315.638C95.2846 316.682 95.0896 317.712 94.8984 318.722L94.8727 318.857L94.8725 318.858C94.5579 320.517 94.2608 322.083 94.0309 323.619C93.4997 327.169 92.8045 328.273 90.2135 329.471C89.4807 329.558 88.9321 329.872 88.5143 330.111L88.5115 330.112C88.3683 330.195 88.2112 330.285 88.1008 330.329C87.4278 330.227 86.8465 330.487 86.5284 330.63L86.5035 330.641C85.2894 330.421 84.091 330.115 82.8275 329.793C81.472 329.447 80.0702 329.09 78.6396 328.845C77.3252 328.621 76.0382 328.309 74.6754 327.979L74.6739 327.979C73.3188 327.651 71.9174 327.312 70.4952 327.069C69.1051 326.832 67.6955 326.627 66.3321 326.428C64.9923 326.234 63.6071 326.032 62.2595 325.802C60.9554 325.58 59.6763 325.255 58.3225 324.912L58.3154 324.91C56.9586 324.566 55.5557 324.21 54.1246 323.967C52.8253 323.746 51.528 323.512 50.2308 323.279L50.1121 323.257C48.7156 323.005 47.3195 322.753 45.9203 322.517C45.1797 322.392 44.4409 322.349 43.7081 322.349C42.9038 322.349 42.1064 322.4 41.324 322.451L41.3133 322.452C39.9469 322.54 38.6574 322.623 37.4765 322.425C36.1572 322.203 34.8073 321.904 33.5024 321.614C32.1395 321.311 30.7303 320.999 29.3097 320.762C28.0245 320.548 26.7597 320.204 25.4212 319.84C24.0544 319.469 22.6412 319.085 21.1858 318.845C18.0361 318.325 15.0466 317.652 13.0823 315.258C13.151 314.668 13.3321 314.025 13.5213 313.353L13.5231 313.346C13.7981 312.372 14.0817 311.366 14.1044 310.292C14.3645 308.742 14.2559 307.207 14.1507 305.721L14.15 305.712C14.0512 304.309 13.9578 302.984 14.1804 301.76C14.4483 300.284 14.5941 298.793 14.7346 297.351C14.8747 295.916 15.0074 294.561 15.25 293.215C15.4564 292.072 16.1436 290.904 16.8715 289.667L16.8718 289.667L16.8725 289.665C17.7063 288.249 18.5686 286.783 18.8662 285.102C19.0713 283.946 19.2136 282.775 19.3506 281.643L19.3515 281.636C19.4564 280.771 19.5648 279.877 19.6989 279.019C19.8743 277.893 19.801 276.797 19.7299 275.737L19.7296 275.733C19.6621 274.725 19.5983 273.772 19.7652 272.93C19.9878 271.807 19.9311 270.594 19.8708 269.309C19.8189 268.196 19.7652 267.045 19.8953 265.914C19.9815 265.161 20.4501 264.271 20.9463 263.328L20.9488 263.323C21.6444 262.002 22.4326 260.505 22.3611 258.885C22.2668 256.756 20.9571 255.103 19.9044 253.774L19.9039 253.774C19.4284 253.173 18.9796 252.607 18.7283 252.112C18.1099 250.894 18.1278 249.525 18.1457 248.2C18.1579 247.282 18.1692 246.414 17.9829 245.577C17.5945 243.833 18.0505 242.791 18.8789 240.9L19.0525 240.503C19.316 239.897 19.5087 239.285 19.7126 238.636L19.7159 238.626C20.1152 237.356 20.5285 236.042 21.5205 234.764C23.4626 232.262 25.2227 230.554 27.0604 229.39C27.5645 229.07 28.0699 228.731 28.5792 228.388L28.5796 228.387C30.3631 227.187 32.2073 225.945 34.0807 225.636C36.4287 225.247 39.2994 225.722 42.0767 226.182L42.0951 226.185L42.2042 226.203C43.5013 226.418 44.8083 226.538 46.0722 226.654C47.3627 226.772 48.5821 226.883 49.7892 227.087C50.7569 227.252 51.7722 227.847 52.8473 228.477L52.8481 228.478C54.1172 229.222 55.4295 229.991 56.9653 230.256C58.1606 230.461 59.3573 230.655 60.5539 230.849C61.865 231.061 63.176 231.273 64.4848 231.501C65.9263 231.753 67.3526 231.648 68.7334 231.546L68.7434 231.545L68.7594 231.544C70.0003 231.452 71.174 231.366 72.2256 231.551C73.3838 231.755 74.5294 232.103 75.7418 232.472L75.7522 232.476C76.9963 232.854 78.282 233.245 79.6233 233.482C80.9143 233.709 82.2192 233.873 83.4809 234.03L83.4823 234.031C84.7047 234.184 85.968 234.342 87.1799 234.556C88.5138 234.791 89.8534 234.887 91.149 234.979L91.1536 234.979C92.4214 235.069 93.6185 235.155 94.7876 235.36C97.1792 235.78 99.4242 236.691 101.595 237.573C102.049 237.757 102.497 237.938 102.94 238.114C105.283 239.038 106.937 240.77 108.687 242.603L109.109 243.043C109.757 243.718 110.529 244.328 111.276 244.917Z" fill="#E6E5E3"/>
</g>
</svg>
