<svg width="300" height="55" viewBox="0 0 300 55" fill="none" xmlns="http://www.w3.org/2000/svg">
<path d="M123.072 19.9093H123.013C121.641 20.1446 120.171 20.2916 118.604 20.3504C117.036 20.4093 115.567 20.2429 114.195 19.8504C114.43 18.7916 114.215 17.9093 113.549 17.2034C112.882 16.4975 112.079 16.0471 111.138 15.8505C110.198 15.6547 109.287 15.753 108.405 16.1446C107.523 16.537 107.003 17.2824 106.847 18.3799C106.768 18.6546 106.739 18.9194 106.759 19.174C106.778 19.4294 106.808 19.6941 106.847 19.9681C107.16 20.9093 107.67 21.537 108.375 21.8504C109.081 22.1647 109.845 22.3798 110.668 22.4975C112.745 22.7328 114.675 23.4 116.459 24.4975C118.242 25.5958 119.701 26.9882 120.838 28.6739C121.544 29.5765 122.073 30.5471 122.425 31.5857C122.778 32.6252 122.984 33.6941 123.043 34.7916C123.101 35.8899 123.023 36.9975 122.808 38.1151C122.592 39.2327 122.249 40.3016 121.779 41.321C121.309 42.5369 120.681 43.5764 119.898 44.4386C119.113 45.3016 118.222 46.0075 117.223 46.5563C116.223 47.1058 115.145 47.5075 113.99 47.7621C112.833 48.0168 111.647 48.1243 110.433 48.0857C108.708 48.0462 106.994 47.7428 105.289 47.1739C103.584 46.6058 102.065 45.8117 100.733 44.7915C99.4005 43.7722 98.3423 42.5268 97.5588 41.0563C96.7744 39.5857 96.4418 37.9092 96.5594 36.0269V35.6739C97.9308 35.4781 99.4399 35.4294 101.086 35.5269C102.732 35.6252 104.221 35.6546 105.554 35.6151C105.632 36.8706 106.132 37.8117 107.053 38.4386C107.973 39.0664 108.953 39.3706 109.992 39.3504C111.03 39.3311 111.932 38.9882 112.696 38.321C113.461 37.6546 113.725 36.6353 113.49 35.2622C113.372 34.321 113.02 33.5664 112.432 32.9975C111.844 32.4294 111.148 31.9681 110.345 31.6151C109.541 31.2622 108.669 30.9975 107.729 30.821C106.788 30.6445 105.906 30.4781 105.083 30.321C104.299 30.1647 103.574 29.9092 102.908 29.5563C102.242 29.2034 101.634 28.7916 101.086 28.321C99.2829 26.5958 98.1173 24.6941 97.5882 22.6151C97.0591 20.537 97.0297 18.5177 97.5 16.5563C97.9703 14.5958 98.8613 12.8118 100.175 11.2034C101.487 9.59585 103.085 8.40005 104.966 7.61518C105.906 7.22359 106.944 6.95888 108.082 6.82107C109.218 6.68409 110.364 6.6446 111.521 6.70342C112.676 6.76224 113.813 6.92947 114.93 7.20342C116.047 7.47821 117.076 7.83115 118.016 8.26224C119.898 9.24291 121.347 10.6942 122.367 12.6152C123.385 14.537 123.621 16.9681 123.072 19.9093Z" fill="#99BB44"/>
<path d="M150.348 6.26197L151.935 47.4383C151.269 47.556 150.554 47.635 149.79 47.6736C149.025 47.7131 148.281 47.7325 147.556 47.7325H145.439C144.753 47.7325 144.176 47.7526 143.705 47.7913H143.646C143.45 46.4972 143.323 45.1543 143.264 43.7619C143.206 42.3703 143.166 40.9879 143.147 39.6148C143.127 38.2426 143.097 36.8703 143.059 35.4972C143.019 34.1249 142.921 32.8115 142.765 31.556L142.706 31.4972C141.569 31.3014 140.433 31.2031 139.296 31.2031C138.16 31.2031 137.023 31.3409 135.887 31.6149C135.769 32.988 135.72 34.3409 135.74 35.6737C135.759 37.0073 135.788 38.3409 135.828 39.6737C135.866 41.0073 135.877 42.3115 135.857 43.5854C135.837 44.8602 135.73 46.1249 135.534 47.3795C135.064 47.6543 134.436 47.7913 133.653 47.7913C132.869 47.7913 132.085 47.7526 131.301 47.6736C130.517 47.5955 129.782 47.5367 129.097 47.4972C128.411 47.4585 127.892 47.5367 127.539 47.7325C127.46 46.635 127.372 45.135 127.274 43.2325C127.176 41.3308 127.088 39.1938 127.01 36.8207C126.931 34.4485 126.863 31.9291 126.804 29.2619C126.745 26.5955 126.696 23.9191 126.657 21.2325C126.618 18.5468 126.608 15.9586 126.628 13.4678C126.647 10.9779 126.676 8.73256 126.716 6.73256V6.67374H126.892C127.48 6.79138 128.097 6.83088 128.744 6.79138C129.391 6.75273 130.037 6.71323 130.684 6.67374C131.331 6.63508 131.967 6.61491 132.595 6.61491C133.222 6.61491 133.809 6.69391 134.358 6.85021C134.711 9.55608 134.887 12.1838 134.887 14.7325C134.887 17.2813 135.122 19.8115 135.593 22.3208H135.652C136.631 22.556 137.689 22.625 138.826 22.5266C139.962 22.4292 141.02 22.3409 142 22.2619H142.059C142.294 19.5561 142.421 17.0267 142.441 14.6737C142.461 12.3208 142.412 9.73255 142.294 6.90903C142.765 6.75273 143.342 6.61491 144.029 6.49727C144.714 6.37962 145.429 6.29139 146.174 6.23256C146.918 6.17374 147.653 6.15441 148.379 6.17374C149.104 6.19391 149.76 6.22332 150.348 6.26197Z" fill="#99BB44"/>
<path d="M174.98 27.1445L179.389 47.7327V47.7915C178.213 48.0268 176.92 48.1151 175.509 48.0562C174.098 47.9974 172.765 47.8302 171.511 47.5562H171.452C171.217 46.9293 170.991 46.184 170.776 45.3209C170.561 44.4588 170.345 43.5764 170.13 42.6739C169.914 41.7722 169.689 40.9092 169.454 40.0857C169.219 39.2621 168.963 38.5563 168.689 37.968C168.18 37.8899 167.788 37.8504 167.514 37.8504H166.779C166.563 37.8504 166.328 37.8605 166.073 37.8798C165.818 37.9 165.476 37.9092 165.045 37.9092C164.77 38.5369 164.545 39.2722 164.369 40.1151C164.192 40.9588 164.016 41.8411 163.84 42.7621C163.663 43.684 163.477 44.5764 163.281 45.4386C163.085 46.3016 162.811 47.0663 162.458 47.7327C162.419 47.7327 162.389 47.7428 162.37 47.7621C162.35 47.7823 162.32 47.7915 162.282 47.7915C161.967 47.8697 161.184 47.8697 159.93 47.7915C158.676 47.7134 156.716 47.694 154.052 47.7327C154.012 47.7327 153.973 47.7134 153.934 47.6739C154.012 47.3999 154.149 46.6352 154.346 45.3798C154.541 44.1251 154.816 42.4974 155.169 40.4974C155.521 38.4974 155.942 36.1941 156.433 33.5857C156.922 30.9781 157.5 28.2033 158.167 25.2622C158.833 22.321 159.557 19.2622 160.342 16.0857C161.125 12.9093 161.988 9.75297 162.928 6.61516C163.202 6.57651 163.496 6.55634 163.81 6.55634H165.045C165.554 6.55634 166.21 6.5471 167.014 6.52693C167.817 6.5076 168.866 6.43869 170.159 6.32104C170.277 6.83113 170.462 7.60592 170.718 8.64457C170.972 9.68406 171.247 10.8605 171.541 12.174C171.835 13.4883 172.148 14.8899 172.481 16.3798C172.814 17.8706 173.137 19.3017 173.451 20.6739C173.764 22.0471 174.058 23.3017 174.333 24.4386C174.607 25.5765 174.823 26.4781 174.98 27.1445ZM168.983 30.968C168.591 27.5958 168.249 24.9681 167.955 23.0857C167.661 21.2034 167.405 19.9294 167.19 19.2622C166.975 18.5958 166.759 18.4487 166.544 18.821C166.328 19.1941 166.132 19.9487 165.956 21.0857C165.78 22.2235 165.583 23.6546 165.368 25.3798C165.152 27.1059 164.907 28.968 164.633 30.968C165.299 31.0075 166.005 31.0176 166.75 30.9974C167.494 30.9781 168.239 30.968 168.983 30.968Z" fill="#99BB44"/>
<path d="M209.546 47.6149H209.605C208.233 47.6149 206.704 47.6644 205.02 47.7619C203.334 47.8594 201.61 47.8502 199.846 47.7325H199.788C199.395 46.8308 198.906 45.7527 198.318 44.4972C197.73 43.2426 197.083 41.9292 196.378 40.5561C195.673 39.1838 194.908 37.8309 194.085 36.4972C193.262 35.1645 192.439 33.988 191.616 32.9678L191.499 32.7914C191.381 33.6939 191.322 34.8015 191.322 36.1149C191.322 37.4283 191.352 38.7821 191.411 40.1737C191.469 41.5661 191.537 42.8897 191.616 44.1443C191.694 45.3997 191.753 46.3997 191.793 47.1443C191.126 47.4191 190.254 47.5955 189.177 47.6737C188.098 47.7527 187.031 47.8006 185.973 47.8207C184.915 47.8401 183.964 47.83 183.122 47.7913C182.279 47.7527 181.76 47.7527 181.564 47.7913C181.642 47.7913 181.701 47.2527 181.74 46.1737C181.779 45.0955 181.799 43.6737 181.799 41.909V35.8208C181.799 33.5267 181.789 31.1544 181.77 28.7032C181.749 26.2527 181.711 23.8208 181.652 21.409C181.593 18.9973 181.544 16.7822 181.505 14.762C181.466 12.7427 181.417 11.0175 181.358 9.58555C181.299 8.15446 181.23 7.18388 181.152 6.6738C183.347 6.36035 185.757 6.06623 188.383 5.79145C191.008 5.5175 193.752 5.53682 196.613 5.85027C198.925 5.96792 201.002 6.63514 202.845 7.85026C204.686 9.06623 206.116 10.5763 207.136 12.3797C208.155 14.1839 208.694 16.1738 208.753 18.3502C208.811 20.5267 208.233 22.6351 207.018 24.6737C206.273 26.0855 205.284 27.262 204.05 28.2032C202.815 29.1443 201.257 29.6737 199.376 29.7914H199.082V29.8502C199.905 31.3015 200.806 32.7426 201.786 34.1737C202.766 35.6057 203.726 37.0468 204.667 38.4972C205.608 39.9485 206.509 41.4292 207.371 42.9384C208.233 44.4485 208.958 46.0073 209.546 47.6149ZM189.735 14.9091C189.774 15.4192 189.803 15.9973 189.823 16.6444C189.843 17.2914 189.853 17.9486 189.853 18.6149C189.853 19.2813 189.862 19.9292 189.882 20.5561C189.901 21.1838 189.95 21.7133 190.029 22.1443H190.088C190.989 22.2233 191.969 22.2822 193.027 22.3208C194.085 22.3603 195.085 22.3015 196.025 22.1443C196.769 21.988 197.348 21.6057 197.76 20.9973C198.171 20.3897 198.415 19.7233 198.494 18.9973C198.572 18.2721 198.494 17.5469 198.259 16.8208C198.024 16.0956 197.632 15.5175 197.083 15.0855C196.221 14.3015 195.123 13.9385 193.791 13.9973C192.459 14.0561 191.107 14.3603 189.735 14.9091Z" fill="#99BB44"/>
<path d="M236.881 39.7916V39.9093C236.959 41.1648 236.978 42.4681 236.94 43.821C236.899 45.174 236.723 46.4387 236.41 47.6152C232.412 47.5765 228.346 47.6252 224.213 47.7622C220.077 47.8992 216.109 47.811 212.308 47.4975C212.308 44.0858 212.269 40.7034 212.191 37.3505C212.112 33.9975 212.053 30.6547 212.014 27.3211C211.975 23.9883 211.975 20.6547 212.014 17.3211C212.053 13.9884 212.171 10.6354 212.367 7.26232C213.896 7.18417 215.551 7.11526 217.335 7.05644C219.117 6.99762 220.91 6.94888 222.714 6.90938C224.516 6.87072 226.26 6.83123 227.945 6.79173C229.63 6.75308 231.119 6.73291 232.412 6.73291C233.706 6.73291 234.744 6.75308 235.528 6.79173C236.312 6.83123 236.704 6.87072 236.704 6.90938C236.899 8.28249 236.948 9.67408 236.851 11.0858C236.753 12.4976 236.704 13.89 236.704 15.2623V15.3211C235.449 15.5959 234.185 15.7623 232.911 15.8211C231.637 15.8799 230.354 15.9001 229.061 15.8799C227.767 15.8606 226.474 15.8505 225.182 15.8505C223.889 15.8505 222.595 15.9094 221.302 16.027H221.125L221.067 16.0858C221.105 17.2236 221.057 18.39 220.92 19.5858C220.782 20.7825 220.851 21.9093 221.125 22.9682L221.183 23.027C222.359 23.106 223.554 23.1446 224.77 23.1446C225.986 23.1446 227.2 23.1648 228.415 23.2035V23.2623C228.61 24.5959 228.669 25.9295 228.591 27.2623C228.512 28.5959 228.493 29.9883 228.533 31.4387C227.945 31.5959 227.278 31.6841 226.534 31.7034C225.789 31.7236 225.073 31.7328 224.388 31.7328C223.703 31.7328 223.085 31.753 222.536 31.7917C221.987 31.8312 221.615 31.9295 221.419 32.0858C221.223 33.2236 221.155 34.4975 221.214 35.9093C221.272 37.3211 221.34 38.4975 221.419 39.4387L221.478 39.4975C224.065 39.4975 226.611 39.5664 229.12 39.7034C231.628 39.8412 234.215 39.8706 236.88 39.7916H236.881Z" fill="#99BB44"/>
<path d="M272.57 16.1764C273.324 15.4689 274.086 14.7243 274.834 13.9647C275.599 13.1865 276.349 12.3193 277.06 11.3882L277.654 10.6084L277.045 9.83947C276.578 9.25039 276.059 8.6504 275.502 8.05628C274.958 7.47729 274.391 6.8857 273.8 6.28234L272.045 4.49242C271.464 3.89915 270.907 3.32352 270.382 2.77562C270.027 2.39663 269.683 2.03613 269.35 1.68991C269.017 1.34621 268.686 1.00756 268.353 0.674788L267.678 0L266.846 0.466385C266.532 0.642015 266.221 0.884872 265.922 1.18403C265.693 1.41344 265.463 1.64958 265.233 1.89159C265.025 2.11008 264.813 2.32268 264.594 2.53109C264.415 2.70083 264.249 2.83781 264.097 2.93781L262.96 3.69495L263.806 4.76805C264.177 5.23948 264.641 5.76553 265.182 6.33192L265.466 6.62771C263.069 6.58234 260.517 6.5462 260.108 6.54536C256.225 6.54284 253.042 7.59578 250.734 10.0756C248.427 12.5554 247.763 15.5512 247.763 19.4563C247.763 20.3588 247.772 21.242 247.734 22.1033V23.5151C247.772 25.5159 247.743 27.6243 247.646 29.8386C247.547 32.0545 247.459 34.2016 247.382 36.2797C247.46 37.2999 247.646 40.8091 249.616 43.515C252.228 47.1032 256.879 48.2209 258.904 48.2209H259.903C260.334 48.2209 264.154 48.2116 264.644 48.1915C265.134 48.173 265.497 48.0058 265.732 47.6915C265.81 46.7116 265.839 45.594 265.82 44.3385C265.8 43.0839 265.829 41.9469 265.907 40.9268V40.6318H265.849C264.674 40.5932 261.032 40.4226 258.992 39.3671C257.518 38.6041 256.562 37.7604 256.013 36.5049C255.542 34.8579 255.758 32.9066 255.817 31.1024C255.876 29.2991 255.885 27.5537 255.846 25.868C255.924 24.9663 256.012 24.0546 256.11 23.1319C256.207 22.2109 256.354 21.2596 256.551 20.2789C256.59 20.005 256.638 19.7495 256.698 19.5142C256.758 19.2789 256.828 19.0252 256.904 18.7495C257.288 17.3411 257.666 16.5142 258.446 15.7042C259.038 15.0882 260.102 14.6134 260.777 14.4663C261.476 14.3142 263.552 14.247 265.553 14.2C264.938 14.7815 264.317 15.3403 263.684 15.8546L262.546 16.7798L263.632 17.7663L264.524 18.6243C264.552 18.6537 264.584 18.6899 264.612 18.7235C264.696 18.826 264.829 18.9638 265.017 19.1352C265.141 19.2478 265.304 19.3999 265.507 19.5907C265.728 19.7999 266.021 20.0638 266.39 20.3831L267.326 21.1285L268.155 20.2714C268.83 19.5731 269.542 18.8949 270.272 18.2537C271.042 17.5773 271.806 16.884 272.565 16.1722L272.57 16.1764Z" fill="#99BB44"/>
<path d="M18.3414 32.4388C17.1262 32.6354 15.8623 32.7825 14.5497 32.8799C13.2362 32.9783 11.9924 33.1253 10.8167 33.3211H10.7579C10.5614 35.7917 10.4438 38.253 10.4052 40.7034C10.3657 43.1547 10.3263 45.4975 10.2876 47.7328C9.50325 47.811 8.57275 47.8698 7.49528 47.9093C6.41696 47.948 5.34957 47.9681 4.29141 47.9681C3.23326 47.9681 2.30191 47.948 1.49906 47.9093C0.69536 47.8698 0.214991 47.811 0.0587865 47.7328L0 47.674L0 41.0564C0 38.9976 0.00923788 37.0077 0.0293932 35.0858C0.0487088 33.1648 0.0587865 31.2329 0.0587865 29.2917C0.0587865 27.3505 0.0680244 25.3018 0.0881797 23.1447C0.107495 20.9884 0.117573 18.6649 0.117573 16.1741V7.79177C0.78354 7.67412 1.74344 7.55648 2.99811 7.43883C4.25194 7.32118 5.6729 7.20354 7.26013 7.08589C8.84737 6.96824 10.532 6.88001 12.3158 6.82118C14.0987 6.76236 15.8522 6.74303 17.5772 6.76236C19.3013 6.78253 20.928 6.87077 22.4564 7.02707C23.9849 7.18421 25.2975 7.40018 26.3951 7.67412C26.3951 8.18421 26.4044 8.83126 26.4245 9.6153C26.4438 10.4002 26.4539 11.2136 26.4539 12.0565V14.4682C26.4539 15.2329 26.4338 15.8707 26.3951 16.38C25.337 16.459 24.1512 16.5371 22.8385 16.6153C21.5251 16.6943 20.173 16.7623 18.7823 16.8212C17.3907 16.88 15.9992 16.9489 14.6084 17.027C13.2169 17.106 11.9135 17.2035 10.6991 17.3212C10.2675 18.3413 10.0911 19.3212 10.1701 20.2623C10.2482 21.2035 10.464 21.9884 10.8167 22.6153C10.8553 22.6548 10.8948 22.6741 10.9343 22.6741C11.4827 22.7531 12.0999 22.8018 12.7861 22.8211C13.4713 22.8413 14.1474 22.8506 14.8142 22.8506C15.481 22.8506 16.1268 22.8312 16.7541 22.7917C17.3806 22.7531 17.9097 22.7136 18.3414 22.6741C18.459 22.9489 18.527 23.4783 18.5471 24.2623C18.5664 25.0472 18.5564 25.9195 18.5177 26.88C18.4783 27.8413 18.4489 28.8119 18.4296 29.7917C18.4094 30.7724 18.4388 31.6152 18.5177 32.3211C18.5177 32.4001 18.459 32.4388 18.3414 32.4388Z" fill="#FFFDFD"/>
<path d="M44.2074 27.1445L48.6164 47.7327V47.7915C47.4407 48.0268 46.1474 48.1151 44.7365 48.0562C43.3256 47.9974 41.9929 47.8302 40.739 47.5562H40.6802C40.4451 46.9293 40.2192 46.184 40.0042 45.3209C39.7884 44.4588 39.5725 43.5764 39.3575 42.6739C39.1417 41.7722 38.9166 40.9092 38.6815 40.0857C38.4464 39.2621 38.191 38.5563 37.9173 37.968C37.4075 37.8899 37.0153 37.8504 36.7415 37.8504H36.0067C35.7909 37.8504 35.5557 37.8605 35.3013 37.8798C35.046 37.9 34.7033 37.9092 34.2725 37.9092C33.9979 38.5369 33.7728 39.2722 33.5965 40.1151C33.4201 40.9588 33.2437 41.8411 33.0674 42.7621C32.891 43.684 32.7046 44.5764 32.5089 45.4386C32.3124 46.3016 32.0386 47.0663 31.6859 47.7327C31.6464 47.7327 31.617 47.7428 31.5977 47.7621C31.5776 47.7823 31.5482 47.7915 31.5095 47.7915C31.1946 47.8697 30.4119 47.8697 29.1581 47.7915C27.9034 47.7134 25.9441 47.694 23.2794 47.7327C23.24 47.7327 23.2005 47.7134 23.1619 47.6739C23.24 47.3999 23.3769 46.6352 23.5734 45.3798C23.769 44.1251 24.0437 42.4974 24.3964 40.4974C24.7491 38.4974 25.1698 36.1941 25.6603 33.5857C26.1499 30.9781 26.7277 28.2033 27.3945 25.2622C28.0605 22.321 28.7852 19.2622 29.5696 16.0857C30.3531 12.9093 31.2156 9.75297 32.1562 6.61516C32.43 6.57651 32.7239 6.55634 33.038 6.55634H34.2725C34.7814 6.55634 35.4382 6.5471 36.2419 6.52693C37.0447 6.5076 38.0936 6.43869 39.3869 6.32104C39.5045 6.83113 39.6901 7.60592 39.9454 8.64457C40.1999 9.68406 40.4745 10.8605 40.7684 12.174C41.0623 13.4883 41.3756 14.8899 41.709 16.3798C42.0416 17.8706 42.3649 19.3017 42.679 20.6739C42.9922 22.0471 43.2862 23.3017 43.5608 24.4386C43.8345 25.5765 44.0504 26.4781 44.2074 27.1445ZM38.2112 30.968C37.819 27.5958 37.4764 24.9681 37.1824 23.0857C36.8885 21.2034 36.6332 19.9294 36.4182 19.2622C36.2024 18.5958 35.9866 18.4487 35.7716 18.821C35.5557 19.1941 35.3601 19.9487 35.1837 21.0857C35.0073 22.2235 34.8108 23.6546 34.5958 25.3798C34.38 27.1059 34.1348 28.968 33.861 30.968C34.527 31.0075 35.2324 31.0176 35.9773 30.9974C36.7214 30.9781 37.4663 30.968 38.2112 30.968Z" fill="#FFFDFD"/>
<path d="M60.079 6.4385H61.4899V6.67379C61.4899 10.0469 61.4403 13.4385 61.3429 16.8502C61.2446 20.262 61.1665 23.6838 61.1078 27.1149C61.049 30.5468 61.0389 33.9678 61.0784 37.3796C61.117 40.7914 61.2346 44.1645 61.4311 47.4972C61.1162 47.8107 60.4611 47.9972 59.4617 48.056C58.4624 48.1149 57.3841 48.1241 56.2285 48.0855C55.0721 48.046 53.9652 47.9972 52.907 47.9384C51.8489 47.8796 51.1233 47.909 50.7319 48.0266C51.0057 44.4972 51.1233 40.9485 51.0847 37.3796C51.0452 33.8115 50.9763 30.2721 50.8789 26.762C50.7807 23.2527 50.7219 19.7822 50.7026 16.3502C50.6824 12.9192 50.8495 9.55614 51.2022 6.26203V6.14438C51.3979 6.10573 51.78 6.11497 52.3486 6.17379C52.9163 6.23262 53.3379 6.26203 53.6125 6.26203C54.3179 6.30152 55.1309 6.35026 56.0521 6.40909C56.9726 6.46791 58.3154 6.47799 60.079 6.4385Z" fill="#FFFDFD"/>
<path d="M94.0574 47.6149H94.1162C92.744 47.6149 91.2155 47.6644 89.5309 47.7619C87.8454 47.8594 86.1213 47.8502 84.3577 47.7325H84.2989C83.9067 46.8308 83.4171 45.7527 82.8292 44.4972C82.2414 43.2426 81.5947 41.9292 80.8893 40.5561C80.1838 39.1838 79.4196 37.8309 78.5966 36.4972C77.7736 35.1645 76.9506 33.988 76.1276 32.9678L76.01 32.7914C75.8924 33.6939 75.8336 34.8015 75.8336 36.1149C75.8336 37.4283 75.863 38.7821 75.9218 40.1737C75.9806 41.5661 76.0486 42.8897 76.1276 44.1443C76.2057 45.3997 76.2645 46.3997 76.3039 47.1443C75.6371 47.4191 74.7654 47.5955 73.6879 47.6737C72.6096 47.7527 71.5422 47.8006 70.4841 47.8207C69.4259 47.8401 68.4752 47.83 67.6329 47.7913C66.7897 47.7527 66.2708 47.7527 66.0751 47.7913C66.1532 47.7913 66.212 47.2527 66.2514 46.1737C66.2901 45.0955 66.3102 43.6737 66.3102 41.909V35.8208C66.3102 33.5267 66.3001 31.1544 66.2808 28.7032C66.2607 26.2527 66.222 23.8208 66.1633 21.409C66.1045 18.9973 66.0549 16.7822 66.0163 14.762C65.9768 12.7427 65.9281 11.0175 65.8693 9.58555C65.8105 8.15446 65.7417 7.18388 65.6636 6.6738C67.858 6.36035 70.2682 6.06623 72.8943 5.79145C75.5195 5.5175 78.2632 5.53682 81.1244 5.85027C83.4364 5.96792 85.5132 6.63514 87.3558 7.85026C89.1975 9.06623 90.6277 10.5763 91.6472 12.3797C92.6659 14.1839 93.205 16.1738 93.2638 18.3502C93.3226 20.5267 92.744 22.6351 91.5296 24.6737C90.7847 26.0855 89.7954 27.262 88.5609 28.2032C87.3264 29.1443 85.7685 29.6737 83.8874 29.7914H83.5934V29.8502C84.4165 31.3015 85.3176 32.7426 86.2976 34.1737C87.2768 35.6057 88.2376 37.0468 89.1782 38.4972C90.1187 39.9485 91.0199 41.4292 91.8823 42.9384C92.744 44.4485 93.4696 46.0073 94.0574 47.6149ZM74.2464 14.9091C74.285 15.4192 74.3144 15.9973 74.3346 16.6444C74.3539 17.2914 74.364 17.9486 74.364 18.6149C74.364 19.2813 74.3732 19.9292 74.3934 20.5561C74.4127 21.1838 74.4614 21.7133 74.5403 22.1443H74.5991C75.5002 22.2233 76.4803 22.2822 77.5384 22.3208C78.5966 22.3603 79.596 22.3015 80.5366 22.1443C81.2806 21.988 81.8592 21.6057 82.2707 20.9973C82.6823 20.3897 82.9266 19.7233 83.0056 18.9973C83.0837 18.2721 83.0056 17.5469 82.7704 16.8208C82.5353 16.0956 82.1431 15.5175 81.5947 15.0855C80.7322 14.3015 79.6346 13.9385 78.3027 13.9973C76.9699 14.0561 75.6178 14.3603 74.2464 14.9091Z" fill="#FFFDFD"/>
<path d="M299.998 18.4892C299.92 17.4691 299.735 13.9598 297.764 11.254C295.152 7.66574 290.501 6.5481 288.476 6.5481H287.477C287.046 6.5481 283.226 6.55734 282.736 6.57751C282.246 6.596 281.884 6.76322 281.648 7.07751C281.57 8.05734 281.541 9.17498 281.56 10.4304C281.58 11.6851 281.551 12.822 281.473 13.8422V14.1372H281.531C282.707 14.1758 286.348 14.3464 288.388 15.4019C289.863 16.1649 290.818 17.0086 291.368 18.264C291.838 19.9111 291.622 21.8623 291.563 23.6665C291.504 25.4699 291.495 27.2153 291.534 28.901C291.456 29.8027 291.368 30.7144 291.27 31.6371C291.173 32.5581 291.026 33.5094 290.829 34.49C290.791 34.764 290.742 35.0194 290.682 35.2547C290.623 35.49 290.552 35.7438 290.477 36.0194C290.092 37.4278 289.714 38.2547 288.935 39.0648C288.342 39.6808 287.278 40.1556 286.603 40.3026C285.904 40.4547 283.829 40.522 281.828 40.569C282.442 39.9883 283.064 39.4295 283.696 38.9144L284.834 37.99L283.749 37.0035L282.844 36.1321C282.819 36.1068 282.792 36.0741 282.767 36.0455C282.682 35.9421 282.548 35.8018 282.365 35.6363C282.241 35.522 282.074 35.3682 281.874 35.1791C281.654 34.969 281.36 34.7052 280.99 34.3858L280.054 33.6388L279.225 34.4968C278.55 35.1942 277.838 35.8732 277.108 36.5144C276.337 37.19 275.573 37.8841 274.813 38.5959C274.046 39.3161 273.284 40.0606 272.55 40.8077C271.784 41.5858 271.034 42.453 270.325 43.3833L269.728 44.1631L270.339 44.932C270.805 45.5203 271.324 46.1203 271.881 46.7144C272.424 47.2934 272.993 47.885 273.585 48.49L275.337 50.2782C275.919 50.8715 276.477 51.448 277.003 51.9967C277.357 52.374 277.701 52.7354 278.034 53.0816C278.367 53.4253 278.697 53.7639 279.029 54.0959L279.702 54.7698L280.533 54.3068C280.846 54.1328 281.157 53.8908 281.46 53.5875C281.69 53.3581 281.921 53.1219 282.149 52.8799C282.356 52.6614 282.569 52.4488 282.789 52.2396C282.969 52.0681 283.135 51.932 283.284 51.8337L284.423 51.0774L283.576 50.0026C283.206 49.532 282.742 49.006 282.199 48.4379C282.11 48.3446 282.006 48.2379 281.916 48.1421C284.313 48.1875 286.865 48.2236 287.274 48.2245C291.157 48.227 294.34 47.174 296.647 44.6942C298.955 42.2144 299.619 39.2186 299.619 35.3136C299.619 34.411 299.609 33.5279 299.648 32.6665V31.2548C299.609 29.2539 299.639 27.1455 299.736 24.9312C299.835 22.7153 299.923 20.5682 300 18.4901L299.998 18.4892Z" fill="#FFFDFD"/>
</svg>
